{"glyphs":{"0":{"ha":947,"x_min":0,"x_max":0,"o":"m 476 0 b 656 49 542 0 601 17 b 779 172 704 78 746 119 b 871 514 838 264 871 385 b 778 857 871 643 838 765 b 653 982 744 911 703 953 b 474 1031 600 1015 539 1031 b 293 982 408 1031 347 1015 b 168 860 244 953 203 911 b 76 517 110 768 76 646 b 169 174 76 388 110 265 b 296 49 204 121 246 78 b 476 0 350 17 411 0 z m 474 869 b 643 769 543 869 600 836 b 708 514 685 704 708 611 b 643 260 708 417 685 324 b 476 161 601 194 546 161 b 304 261 406 161 347 196 b 238 517 263 326 238 419 b 304 771 238 614 263 707 b 474 869 346 836 403 869 z "},"1":{"ha":493,"x_min":0,"x_max":0,"o":"m 386 0 l 386 1031 l 1 743 l 97 614 l 225 710 l 225 0 l 386 0 z "},"2":{"ha":849,"x_min":0,"x_max":0,"o":"m 372 164 b 656 540 497 328 568 424 b 742 731 704 604 733 669 b 710 901 751 793 740 851 b 415 1028 654 996 535 1046 b 250 949 353 1018 296 990 b 161 815 211 913 181 868 l 306 731 b 360 828 315 771 335 804 b 440 867 382 849 410 861 b 569 817 494 875 547 854 b 581 754 581 800 583 779 b 525 638 575 721 556 679 b 143 131 418 494 333 382 l 43 0 l 767 0 l 767 164 l 372 164 z "},"3":{"ha":876,"x_min":0,"x_max":0,"o":"m 422 0 b 657 76 510 0 590 26 b 788 257 717 121 763 186 b 789 475 811 329 813 407 b 653 644 765 546 718 604 b 522 694 614 667 571 683 l 707 1031 l 139 1031 l 139 871 l 435 871 l 257 544 l 394 546 b 568 507 467 546 525 533 b 638 424 603 486 625 458 b 560 204 663 349 629 257 b 165 257 463 132 318 150 l 74 125 b 399 0 185 49 293 7 b 422 0 406 0 414 0 z "},"4":{"ha":846,"x_min":0,"x_max":0,"o":"m 678 0 l 678 181 l 775 181 l 775 342 l 678 342 l 678 1085 l 1 181 l 517 181 l 517 0 z m 325 342 l 517 599 l 517 342 z "},"5":{"ha":864,"x_min":0,"x_max":0,"o":"m 413 0 b 649 82 503 0 583 28 b 744 468 764 176 803 336 b 558 642 711 546 646 606 b 321 681 490 669 411 683 l 344 871 l 694 871 l 694 1031 l 203 1031 l 136 497 l 240 513 b 497 493 343 526 432 521 b 599 403 546 474 581 442 b 606 299 613 371 614 335 b 546 206 596 263 575 229 b 401 161 508 174 458 158 b 156 257 328 164 243 197 l 65 124 b 394 0 178 46 289 4 b 413 0 400 0 407 0 z "},"6":{"ha":832,"x_min":0,"x_max":0,"o":"m 686 547 b 439 643 644 592 568 643 b 282 610 382 643 328 632 b 346 740 297 657 318 701 b 461 843 379 788 418 822 b 614 867 507 867 558 875 l 614 1029 b 389 988 535 1036 458 1022 b 214 833 321 954 263 901 b 147 185 82 644 53 367 b 449 0 208 65 315 0 b 686 108 542 0 626 39 b 768 333 739 169 768 251 b 686 547 768 417 739 492 z m 564 213 b 449 161 543 189 507 161 b 290 258 376 161 324 193 b 261 349 276 285 267 315 b 290 411 264 361 274 386 b 439 482 324 458 372 482 b 569 436 497 482 540 467 b 607 333 594 411 607 375 b 564 213 607 289 592 246 z "},"7":{"ha":761,"x_min":0,"x_max":0,"o":"m 272 0 l 747 1031 l 97 1031 l 97 869 l 494 869 l 94 0 l 272 0 z "},"8":{"ha":843,"x_min":0,"x_max":0,"o":"m 678 535 b 653 557 669 542 661 550 b 732 750 703 608 732 676 b 651 944 732 824 703 893 b 425 1031 611 985 540 1031 b 194 947 307 1031 235 985 b 113 753 142 896 113 826 b 193 558 113 679 140 610 b 168 536 185 551 175 543 b 78 317 110 478 78 400 b 169 97 78 233 110 156 b 428 0 214 53 296 0 b 678 99 556 0 635 53 b 765 317 733 156 765 233 b 678 535 765 399 733 476 z m 307 831 b 425 869 333 856 374 869 b 538 831 472 869 511 856 b 569 750 558 810 569 781 b 428 633 569 696 532 633 b 307 674 376 633 335 647 b 274 753 286 694 274 722 b 307 831 274 782 285 810 z m 563 211 b 428 161 531 179 485 161 b 282 213 367 161 315 179 b 239 317 254 239 239 276 b 425 472 239 424 332 472 b 561 422 482 472 531 454 b 603 317 589 394 603 357 b 563 211 603 275 589 238 z "},"9":{"ha":833,"x_min":0,"x_max":0,"o":"m 147 483 b 394 388 189 440 265 388 b 553 422 453 388 506 400 b 488 292 536 375 515 331 b 372 188 456 244 417 210 b 203 164 326 165 258 157 l 203 1 b 444 43 283 -6 375 8 b 619 199 513 78 571 129 b 686 847 753 386 781 665 b 386 1031 625 965 518 1031 b 147 924 292 1031 207 993 b 65 697 96 863 65 779 b 147 483 65 615 94 539 z m 269 818 b 386 869 290 842 326 869 b 543 772 458 869 510 838 b 574 683 557 746 567 715 b 543 621 569 669 561 644 b 394 549 510 572 461 549 b 264 594 336 549 293 565 b 226 697 240 621 226 657 b 269 818 226 742 243 786 z "},"\u0000":{"ha":0,"x_min":0,"x_max":0,"o":""},"\r":{"ha":417,"x_min":0,"x_max":0,"o":""}," ":{"ha":417,"x_min":0,"x_max":0,"o":""},"I":{"ha":375,"x_min":0,"x_max":0,"o":"m 269 0 l 269 1031 l 108 1031 l 108 0 l 269 0 z "},"C":{"ha":940,"x_min":0,"x_max":0,"o":"m 865 304 b 831 265 854 290 843 278 b 581 161 764 199 675 161 b 331 265 486 161 397 199 b 226 515 264 332 226 421 b 331 765 226 610 264 699 b 581 869 397 833 486 869 b 804 790 664 869 742 842 l 804 981 b 782 990 797 983 789 988 b 581 1031 718 1018 650 1031 b 381 990 511 1031 443 1018 b 217 881 318 965 264 928 b 106 717 169 833 132 778 b 65 515 79 653 65 585 b 106 315 65 446 79 378 b 217 151 132 253 169 199 b 381 40 264 104 318 67 b 581 0 443 14 511 0 b 782 40 650 0 718 14 b 865 85 811 53 839 68 l 865 304 z "},"N":{"ha":1025,"x_min":0,"x_max":0,"o":"m 918 -47 l 918 1031 l 756 1031 l 756 369 l 108 1079 l 108 0 l 269 0 l 269 663 l 918 -47 z "},"S":{"ha":733,"x_min":0,"x_max":0,"o":"m 651 351 b 561 486 636 400 606 446 b 483 561 539 507 508 536 l 483 561 l 311 726 b 272 819 268 768 267 800 b 347 879 281 849 311 872 b 483 821 376 885 431 885 l 610 922 b 469 1026 569 971 522 1006 b 317 1038 419 1044 367 1049 b 193 979 271 1029 228 1008 b 117 864 156 947 129 908 b 119 733 104 822 106 776 b 199 610 133 689 160 647 l 325 490 b 451 368 331 485 406 411 b 499 251 481 340 513 299 b 390 165 486 210 443 175 b 296 174 360 158 326 161 b 194 254 258 188 224 215 l 67 154 b 238 22 115 92 172 49 b 360 0 276 7 318 0 b 422 6 381 0 401 1 b 654 207 535 28 625 107 b 651 351 668 254 667 304 z "},"F":{"ha":810,"x_min":0,"x_max":0,"o":"m 269 886 l 728 886 l 728 1031 l 268 1031 l 268 1031 l 108 1031 l 108 0 l 269 0 l 269 465 l 646 465 l 646 611 l 269 611 l 269 886 z "},"R":{"ha":890,"x_min":0,"x_max":0,"o":"m 551 372 b 671 451 607 392 646 424 b 754 689 725 511 754 594 b 671 928 754 785 725 868 b 414 1031 629 975 550 1031 l 244 1031 l 244 1031 l 108 1031 l 108 0 l 269 0 l 269 349 l 388 349 l 647 0 l 829 0 l 551 372 z m 269 493 l 269 885 l 414 885 b 563 831 481 885 531 867 b 608 689 601 789 608 731 b 563 549 608 649 601 590 b 414 493 531 513 481 493 l 269 493 z "},"O":{"ha":1179,"x_min":0,"x_max":0,"o":"m 590 0 b 792 40 660 0 728 14 b 956 151 853 67 907 104 b 1065 315 1003 199 1039 253 b 1106 515 1092 378 1106 446 b 1065 717 1106 585 1092 653 b 956 881 1039 778 1003 832 b 792 990 907 928 853 964 b 590 1031 728 1017 660 1031 b 390 990 521 1031 453 1017 b 226 881 328 964 274 928 b 115 717 179 832 142 778 b 75 515 89 653 75 585 b 115 315 75 446 89 378 b 226 151 142 253 179 199 b 390 40 274 104 328 67 b 590 0 453 14 521 0 z m 590 869 b 840 765 685 869 774 832 b 944 515 907 699 944 610 b 840 265 944 421 907 332 b 590 161 774 199 685 161 b 340 265 496 161 407 199 b 236 515 274 332 236 421 b 340 765 236 610 274 699 b 590 869 407 832 496 869 z "},"L":{"ha":710,"x_min":0,"x_max":0,"o":"m 700 146 l 269 146 l 269 1031 l 108 1031 l 108 0 l 268 0 l 268 0 l 700 0 l 700 146 z "},"G":{"ha":986,"x_min":0,"x_max":0,"o":"m 904 535 l 549 535 l 549 389 l 743 389 l 743 199 b 742 199 742 199 742 199 b 685 176 724 189 704 182 b 682 175 685 176 683 175 b 676 174 681 175 678 175 b 672 172 675 174 674 174 b 668 172 671 172 669 172 b 663 171 667 171 664 171 b 660 169 661 169 661 169 b 629 164 650 168 639 165 b 626 164 628 164 628 164 b 621 164 625 164 622 164 b 618 163 619 164 618 164 b 611 163 615 163 614 163 b 607 163 610 163 608 163 b 603 163 606 163 604 163 b 597 163 601 163 599 163 b 593 161 596 161 594 161 b 583 161 590 161 586 161 b 333 265 489 161 400 199 b 243 419 290 308 260 361 b 231 497 236 444 232 471 b 229 515 229 504 229 510 b 231 535 229 522 229 528 b 231 550 231 539 231 544 b 238 592 232 564 235 578 b 239 594 238 593 238 593 b 282 700 247 632 261 667 b 285 706 282 701 283 704 b 293 718 288 710 290 714 b 296 721 293 718 294 719 b 314 746 301 729 307 738 b 315 747 315 746 315 747 b 333 765 321 754 328 760 b 394 815 351 785 372 801 b 401 819 397 817 400 818 b 583 869 456 853 518 869 b 593 869 586 869 590 869 b 596 869 593 869 594 869 b 601 869 597 869 600 869 b 606 869 603 869 604 869 b 610 868 607 869 608 868 b 618 868 613 868 615 868 b 622 868 619 868 621 868 b 628 867 624 867 626 867 b 631 867 629 867 629 867 b 636 865 632 867 635 865 b 639 865 638 865 638 865 b 657 863 644 864 651 864 b 660 861 658 861 660 861 b 665 860 663 861 664 861 b 669 860 667 860 668 860 b 674 858 671 858 672 858 b 738 835 694 853 717 844 l 738 835 b 807 790 763 822 786 808 l 807 981 l 807 981 l 807 981 l 807 981 b 806 981 807 981 807 981 b 797 985 803 982 800 983 b 796 986 796 985 796 986 b 622 1029 740 1011 682 1025 b 622 1029 622 1029 622 1029 b 610 1031 618 1031 614 1031 b 608 1031 610 1031 610 1031 b 597 1031 606 1031 601 1031 b 596 1031 597 1031 596 1031 b 583 1031 592 1031 588 1031 b 583 1031 583 1031 583 1031 b 383 990 514 1031 446 1018 b 219 881 321 965 267 928 b 108 717 172 833 135 778 b 68 542 85 661 72 601 b 68 515 68 533 68 524 b 71 464 68 499 69 481 b 108 315 75 413 89 363 b 219 151 135 253 172 199 b 333 65 253 117 292 88 b 383 40 349 56 365 47 b 404 32 390 38 397 35 b 419 26 410 31 414 28 b 421 26 419 26 419 26 b 583 0 472 8 528 0 b 583 0 583 0 583 0 b 596 0 588 0 592 0 b 597 0 596 0 597 0 b 608 0 601 0 606 0 b 610 0 610 0 610 0 b 794 44 675 4 736 18 b 796 46 796 46 796 46 b 806 50 799 47 803 49 b 806 50 806 50 806 50 b 813 54 808 51 811 53 b 815 54 814 54 814 54 b 818 57 817 56 817 56 b 825 60 821 57 824 58 b 829 63 826 61 828 61 b 836 65 832 64 833 64 b 840 68 838 67 839 67 b 844 71 842 69 843 69 b 850 75 847 72 849 74 b 856 78 853 75 854 76 b 860 81 857 78 858 79 b 865 83 861 81 864 82 b 868 85 867 85 867 85 l 868 85 b 868 85 868 85 868 85 l 904 110 l 904 389 l 904 389 l 904 535 z "},"B":{"ha":817,"x_min":0,"x_max":0,"o":"m 721 442 b 650 543 704 479 681 513 b 603 581 635 557 619 569 b 603 581 603 581 603 581 b 683 769 665 646 683 714 b 663 878 683 810 676 846 b 592 967 647 913 624 943 b 336 1031 533 1010 450 1031 l 269 1031 l 269 1031 l 108 1031 l 108 0 l 244 0 l 244 0 l 336 0 b 619 68 453 0 549 24 b 714 167 660 94 692 128 b 747 306 736 208 747 254 b 721 442 747 354 739 400 z m 336 886 b 504 850 390 886 465 879 b 538 769 519 839 538 819 b 494 679 538 736 524 707 b 375 607 467 651 426 628 b 269 574 339 592 301 581 l 269 886 l 336 886 z m 540 190 b 336 146 494 161 424 146 l 269 146 l 269 424 b 426 471 313 433 369 447 b 469 489 442 476 456 483 b 549 438 501 475 528 458 b 603 306 585 403 603 360 b 540 190 603 254 583 218 z "},"D":{"ha":938,"x_min":0,"x_max":0,"o":"m 743 876 b 578 990 699 926 643 965 b 353 1031 511 1018 436 1031 l 269 1031 l 269 1031 l 108 1031 l 108 0 l 163 0 l 353 0 b 578 40 436 0 511 14 b 743 154 643 65 699 104 b 868 515 825 244 868 369 b 743 876 868 661 825 786 z m 624 263 b 353 161 563 196 472 161 l 269 161 l 269 869 l 353 869 b 624 768 472 869 563 836 b 707 515 678 708 707 621 b 624 263 707 411 678 322 z "},"W":{"ha":1557,"x_min":0,"x_max":0,"o":"m 1500 1031 l 1324 1031 l 1053 351 l 869 782 l 779 992 l 696 779 l 525 351 l 235 1031 l 57 1031 l 529 -46 l 785 575 l 1057 -46 l 1500 1031 z "},"K":{"ha":907,"x_min":0,"x_max":0,"o":"m 879 0 l 425 535 l 803 1031 l 600 1031 l 269 606 l 269 1031 l 108 1031 l 108 0 l 269 0 l 269 467 l 678 0 l 879 0 z "},"T":{"ha":811,"x_min":0,"x_max":0,"o":"m 771 1031 l 42 1031 l 42 886 l 325 886 l 325 0 l 488 0 l 488 886 l 771 886 l 771 1031 z "},"V":{"ha":983,"x_min":0,"x_max":0,"o":"m 213 1031 l 35 1031 l 507 -46 l 949 1031 l 774 1031 l 503 351 l 213 1031 z "},"Z":{"ha":979,"x_min":0,"x_max":0,"o":"m 874 0 l 874 161 l 358 161 l 888 1031 l 186 1031 l 186 869 l 600 869 l 71 0 l 874 0 z "},"H":{"ha":949,"x_min":0,"x_max":0,"o":"m 842 1031 l 681 1031 l 681 590 l 269 590 l 269 1031 l 108 1031 l 108 0 l 269 0 l 269 444 l 681 444 l 681 0 l 842 0 l 842 1031 z "},"J":{"ha":583,"x_min":0,"x_max":0,"o":"m 488 1031 l 325 1031 l 325 350 b 268 207 325 288 306 239 b 121 161 232 178 181 161 b 56 169 99 161 76 164 l 56 4 b 121 0 76 1 99 0 b 371 83 218 0 307 29 b 488 350 424 128 488 210 l 488 1031 z "},"X":{"ha":1113,"x_min":0,"x_max":0,"o":"m 1033 0 l 657 551 l 985 1031 l 782 1031 l 556 700 l 331 1031 l 128 1031 l 454 551 l 79 0 l 282 0 l 556 403 l 831 0 l 1033 0 z "},"Q":{"ha":1175,"x_min":0,"x_max":0,"o":"m 1056 315 b 1096 515 1083 378 1096 446 b 1056 717 1096 585 1083 653 b 946 881 1029 778 993 833 b 782 990 899 928 843 964 b 581 1031 718 1018 650 1031 b 381 990 511 1031 443 1018 b 217 881 318 964 264 928 b 106 717 169 833 132 778 b 65 515 79 653 65 585 b 106 315 65 446 79 378 b 217 151 132 253 169 199 b 381 40 264 104 318 67 b 581 0 443 14 511 0 b 782 40 650 0 718 14 b 817 57 793 46 806 51 l 911 -69 l 1028 18 l 935 140 b 946 151 939 144 942 147 b 1056 315 993 199 1029 253 z m 581 161 b 331 265 486 161 397 199 b 226 515 264 332 226 421 b 331 765 226 610 264 699 b 581 869 397 832 486 869 b 831 765 675 869 764 832 b 935 515 897 699 935 610 b 838 271 935 424 900 338 l 763 372 l 646 285 l 718 189 b 581 161 675 171 629 161 z "},"U":{"ha":960,"x_min":0,"x_max":0,"o":"m 481 0 b 736 82 578 0 668 29 b 828 193 775 113 806 150 b 863 350 850 240 863 293 l 863 1031 l 700 1031 l 700 350 b 638 210 700 289 679 242 b 481 161 597 179 540 161 b 324 210 419 161 363 179 b 260 350 282 242 260 289 l 260 1031 l 99 1031 l 99 350 b 133 193 99 293 110 240 b 225 82 154 150 185 113 b 481 0 293 29 383 0 z "},"P":{"ha":779,"x_min":0,"x_max":0,"o":"m 108 1031 l 108 0 l 269 0 l 269 349 l 414 349 b 671 451 550 349 629 404 b 754 690 726 511 754 594 b 671 929 754 786 726 868 b 414 1031 629 975 550 1031 l 244 1031 l 108 1031 z m 564 549 b 414 494 531 513 481 494 l 269 494 l 269 886 l 414 886 b 564 831 481 886 531 867 b 610 690 601 789 610 731 b 564 549 610 649 601 590 z "},"a":{"ha":965,"x_min":0,"x_max":0,"o":"m 754 0 l 931 0 l 483 1078 l 35 0 l 213 0 l 300 221 l 667 221 l 754 0 z m 358 365 l 483 679 l 608 365 l 358 365 z "},"b":{"ha":817,"x_min":0,"x_max":0,"o":"m 721 442 b 650 543 704 479 681 513 b 603 581 635 557 619 569 b 603 581 603 581 603 581 b 683 769 665 646 683 714 b 663 878 683 810 676 846 b 592 967 647 913 624 943 b 336 1031 533 1010 450 1031 l 269 1031 l 269 1031 l 108 1031 l 108 0 l 244 0 l 244 0 l 336 0 b 619 68 453 0 549 24 b 714 167 660 94 692 128 b 747 306 736 208 747 254 b 721 442 747 354 739 400 z m 336 886 b 504 850 390 886 465 879 b 538 769 519 839 538 819 b 494 679 538 736 524 707 b 375 607 467 651 426 628 b 269 574 339 592 301 581 l 269 886 l 336 886 z m 540 190 b 336 146 494 161 424 146 l 269 146 l 269 424 b 426 471 313 433 369 447 b 469 489 442 476 456 483 b 549 438 501 475 528 458 b 603 306 585 403 603 360 b 540 190 603 254 583 218 z "},"d":{"ha":938,"x_min":0,"x_max":0,"o":"m 743 876 b 578 990 699 926 643 965 b 353 1031 511 1018 436 1031 l 269 1031 l 269 1031 l 108 1031 l 108 0 l 163 0 l 353 0 b 578 40 436 0 511 14 b 743 154 643 65 699 104 b 868 515 825 244 868 369 b 743 876 868 661 825 786 z m 624 263 b 353 161 563 196 472 161 l 269 161 l 269 869 l 353 869 b 624 768 472 869 563 836 b 707 515 678 708 707 621 b 624 263 707 411 678 322 z "},"e":{"ha":808,"x_min":0,"x_max":0,"o":"m 269 886 l 726 886 l 726 1031 l 268 1031 l 268 1031 l 108 1031 l 108 0 l 268 0 l 268 0 l 726 0 l 726 146 l 269 146 l 269 465 l 646 465 l 646 611 l 269 611 l 269 886 z "},"c":{"ha":940,"x_min":0,"x_max":0,"o":"m 865 304 b 831 265 854 290 843 278 b 581 161 764 199 675 161 b 331 265 486 161 397 199 b 226 515 264 332 226 421 b 331 765 226 610 264 699 b 581 869 397 833 486 869 b 804 790 664 869 742 842 l 804 981 b 782 990 797 983 789 988 b 581 1031 718 1018 650 1031 b 381 990 511 1031 443 1018 b 217 881 318 965 264 928 b 106 717 169 833 132 778 b 65 515 79 653 65 585 b 106 315 65 446 79 378 b 217 151 132 253 169 199 b 381 40 264 104 318 67 b 581 0 443 14 511 0 b 782 40 650 0 718 14 b 865 85 811 53 839 68 l 865 304 z "},"h":{"ha":949,"x_min":0,"x_max":0,"o":"m 842 1031 l 681 1031 l 681 590 l 269 590 l 269 1031 l 108 1031 l 108 0 l 269 0 l 269 444 l 681 444 l 681 0 l 842 0 l 842 1031 z "},".":{"ha":350,"x_min":0,"x_max":0,"o":"m 269 97 b 172 194 269 150 225 194 b 75 97 118 194 75 150 b 172 0 75 43 118 0 b 269 97 225 0 269 43 z "},"!":{"ha":385,"x_min":0,"x_max":0,"o":"m 193 185 b 100 92 142 185 100 143 b 193 0 100 42 142 0 b 285 92 243 0 285 42 b 193 185 285 143 243 185 z m 193 269 b 268 253 228 269 253 261 l 301 1086 l 83 1086 l 117 251 b 193 269 132 260 158 269 z "},",":{"ha":350,"x_min":0,"x_max":0,"o":"m 269 97 b 172 193 269 150 225 193 b 75 97 118 193 75 150 b 167 0 75 44 115 3 l 133 -149 l 189 -149 l 263 61 l 263 61 b 269 97 267 72 269 83 z "},"\"":{"ha":518,"x_min":0,"x_max":0,"o":"m 197 772 l 261 1031 l 117 1031 l 100 772 l 197 772 z m 378 772 l 442 1031 l 297 1031 l 281 772 l 378 772 z "},"'":{"ha":299,"x_min":0,"x_max":0,"o":"m 189 772 l 253 1031 l 108 1031 l 92 772 l 189 772 z "},"¡":{"ha":385,"x_min":0,"x_max":0,"o":"m 193 599 b 285 690 243 599 285 640 b 193 783 285 742 243 783 b 100 690 142 783 100 742 b 193 599 100 640 142 599 z m 193 514 b 117 531 157 514 132 522 l 83 -303 l 301 -303 l 268 532 b 193 514 253 524 226 514 z "},"#":{"ha":1199,"x_min":0,"x_max":0,"o":"m 1129 621 l 1129 782 l 969 782 l 1049 1078 l 882 1078 l 803 782 l 582 782 l 661 1078 l 494 1078 l 415 782 l 204 782 l 204 621 l 372 621 l 315 410 l 108 410 l 108 249 l 272 249 l 206 0 l 374 0 l 440 249 l 660 249 l 593 0 l 761 0 l 828 249 l 1033 249 l 1033 410 l 871 410 l 926 621 l 1129 621 z m 703 410 l 483 410 l 539 621 l 760 621 l 703 410 z "},"$":{"ha":743,"x_min":0,"x_max":0,"o":"m 669 343 b 576 485 653 394 621 442 b 493 563 551 507 519 538 l 493 563 l 433 622 l 433 885 b 493 833 453 875 474 860 l 625 939 b 479 1049 583 992 535 1028 b 433 1061 464 1054 449 1058 l 433 1156 l 336 1156 l 336 1064 b 319 1061 331 1064 325 1063 b 190 1000 271 1051 226 1031 b 111 879 151 967 124 925 b 113 743 97 835 99 788 b 197 614 128 697 156 653 l 328 489 b 336 479 329 488 332 485 l 336 147 b 299 158 324 150 311 153 b 192 242 258 174 224 201 l 58 138 b 238 0 108 72 169 26 b 336 -22 269 -12 303 -19 l 336 -111 l 433 -111 l 433 -17 b 672 193 549 7 643 89 b 669 343 686 242 685 294 z m 314 736 b 272 832 269 779 267 813 b 336 892 281 858 306 881 l 336 714 l 314 736 z m 510 239 b 433 160 500 206 471 176 l 433 388 b 461 361 443 378 451 369 b 510 239 490 333 524 289 z "},"&":{"ha":821,"x_min":0,"x_max":0,"o":"m 585 338 l 585 201 b 436 154 544 171 492 154 b 276 208 375 154 319 174 b 218 322 239 240 218 281 b 347 478 218 392 272 454 b 606 447 419 457 506 447 l 606 600 b 318 656 515 600 393 610 b 254 756 275 682 254 714 b 297 838 254 786 269 815 b 415 878 328 864 371 878 b 500 860 446 878 475 871 b 561 808 526 847 547 829 l 689 892 b 565 999 660 938 617 974 b 415 1031 519 1019 468 1031 b 199 956 335 1031 257 1004 b 128 868 168 931 144 901 b 101 756 110 832 101 794 b 136 625 101 708 113 664 b 186 563 149 603 165 582 b 146 526 172 551 158 539 b 65 322 94 469 65 397 b 97 193 65 278 76 233 b 179 90 117 154 143 119 b 436 1 249 32 339 1 b 585 28 488 1 539 10 l 585 -71 l 739 -71 l 739 338 l 585 338 z "},"(":{"ha":486,"x_min":0,"x_max":0,"o":"m 308 -185 l 422 -71 b 267 178 358 -6 304 81 b 207 514 228 281 207 397 b 267 850 207 631 228 747 b 422 1099 304 947 358 1033 l 308 1213 b 117 907 228 1131 161 1025 b 46 514 69 785 46 651 b 117 121 46 375 69 243 b 308 -185 161 3 228 -103 z "},")":{"ha":486,"x_min":0,"x_max":0,"o":"m 179 -185 b 371 121 258 -103 325 3 b 440 514 417 243 440 375 b 371 907 440 651 417 785 b 178 1213 325 1025 258 1131 l 64 1099 b 219 850 129 1033 182 947 b 279 514 258 747 279 631 b 219 178 279 397 258 281 b 64 -71 182 81 129 -6 l 179 -185 z "},"/":{"ha":682,"x_min":0,"x_max":0,"o":"m 269 -135 l 574 1154 l 413 1154 l 108 -135 l 269 -135 z "},"\\":{"ha":682,"x_min":0,"x_max":0,"o":"m 413 -135 l 574 -135 l 269 1154 l 108 1154 l 413 -135 z "},"[":{"ha":453,"x_min":0,"x_max":0,"o":"m 269 1108 l 417 1108 l 417 1206 l 108 1206 l 108 -178 l 417 -178 l 417 -81 l 269 -81 l 269 1108 z "},"]":{"ha":451,"x_min":0,"x_max":0,"o":"m 183 1108 l 183 -81 l 36 -81 l 36 -178 l 344 -178 l 344 1206 l 36 1206 l 36 1108 l 183 1108 z "},"⁄":{"ha":506,"x_min":0,"x_max":0,"o":"m 182 -135 l 486 1154 l 325 1154 l 21 -135 l 182 -135 z "},"<":{"ha":717,"x_min":0,"x_max":0,"o":"m 413 207 l 608 207 l 303 517 l 608 824 l 413 824 l 108 518 l 413 207 z "},">":{"ha":717,"x_min":0,"x_max":0,"o":"m 303 207 l 608 518 l 303 824 l 108 824 l 413 517 l 108 207 l 303 207 z "},":":{"ha":350,"x_min":0,"x_max":0,"o":"m 269 643 b 172 740 269 697 225 740 b 75 643 118 740 75 697 b 172 546 75 590 118 546 b 269 643 225 546 269 590 z m 269 97 b 172 194 269 150 225 194 b 75 97 118 194 75 150 b 172 0 75 43 118 0 b 269 97 225 0 269 43 z "},";":{"ha":350,"x_min":0,"x_max":0,"o":"m 269 97 b 172 193 269 150 225 193 b 75 97 118 193 75 150 b 167 0 75 44 115 3 l 133 -149 l 189 -149 l 263 61 l 263 61 b 269 97 267 72 269 83 z m 269 643 b 172 740 269 697 225 740 b 75 643 118 740 75 697 b 172 546 75 590 118 546 b 269 643 225 546 269 590 z "},"“":{"ha":610,"x_min":0,"x_max":0,"o":"m 325 936 b 332 900 325 924 328 911 l 332 900 l 404 690 l 460 690 l 426 839 b 519 936 478 842 519 885 b 422 1033 519 989 475 1033 b 325 936 368 1033 325 989 z m 110 936 b 117 900 110 924 113 911 l 117 900 l 189 690 l 244 690 l 211 839 b 304 936 263 842 304 885 b 207 1033 304 989 260 1033 b 110 936 153 1033 110 989 z "},"”":{"ha":610,"x_min":0,"x_max":0,"o":"m 285 936 b 188 1033 285 989 240 1033 b 90 936 133 1033 90 989 b 182 839 90 885 131 842 l 149 690 l 204 690 l 278 900 l 278 900 b 285 936 282 911 285 924 z m 500 936 b 403 1033 500 989 456 1033 b 306 936 349 1033 306 989 b 397 839 306 885 346 842 l 364 690 l 419 690 l 493 900 l 493 900 b 500 936 497 911 500 924 z "},"=":{"ha":789,"x_min":0,"x_max":0,"o":"m 682 572 l 682 711 l 108 711 l 108 572 z m 682 319 l 682 458 l 108 458 l 108 319 z "},"-":{"ha":649,"x_min":0,"x_max":0,"o":"m 542 446 l 542 585 l 108 585 l 108 446 l 542 446 z "},"+":{"ha":858,"x_min":0,"x_max":0,"o":"m 750 585 l 499 585 l 499 836 l 360 836 l 360 585 l 108 585 l 108 446 l 360 446 l 360 194 l 499 194 l 499 446 l 750 446 l 750 585 z "},"*":{"ha":410,"x_min":0,"x_max":0,"o":"m 353 885 l 325 986 l 243 947 l 258 1031 l 154 1031 l 171 942 l 78 986 l 50 885 l 144 878 l 86 808 l 176 757 l 207 843 l 238 757 l 328 808 l 268 879 l 353 885 z "},"‘":{"ha":394,"x_min":0,"x_max":0,"o":"m 110 936 b 117 900 110 924 113 911 l 117 900 l 189 690 l 244 690 l 211 839 b 304 936 263 842 304 885 b 207 1033 304 989 260 1033 b 110 936 153 1033 110 989 z "},"’":{"ha":394,"x_min":0,"x_max":0,"o":"m 285 936 b 188 1033 285 989 240 1033 b 90 936 133 1033 90 989 b 182 839 90 885 131 842 l 149 690 l 204 690 l 278 900 l 278 900 b 285 936 282 911 285 924 z "},"?":{"ha":818,"x_min":0,"x_max":0,"o":"m 371 186 b 278 93 319 186 278 144 b 371 0 278 42 319 0 b 464 93 422 0 464 42 b 371 186 464 144 422 186 z m 701 961 b 419 1086 643 1039 536 1086 b 308 1071 382 1086 344 1081 b 139 967 239 1053 181 1017 b 69 776 96 915 72 850 l 240 776 b 279 881 242 819 256 854 b 360 926 299 903 326 918 b 419 935 378 932 399 935 b 476 928 439 935 458 932 b 558 878 513 918 542 901 b 568 769 579 850 583 813 b 479 631 554 726 524 681 b 460 613 475 626 468 619 b 354 474 417 568 381 522 b 289 251 314 403 293 329 b 372 271 306 261 333 271 b 460 251 414 271 443 260 b 504 404 463 304 478 356 b 588 511 525 442 553 476 b 613 536 597 521 606 529 b 743 768 685 617 728 694 b 701 961 757 839 742 907 z "},"l":{"ha":710,"x_min":0,"x_max":0,"o":"m 700 146 l 269 146 l 269 1031 l 108 1031 l 108 0 l 268 0 l 268 0 l 700 0 l 700 146 z "},"o":{"ha":1179,"x_min":0,"x_max":0,"o":"m 590 0 b 792 40 660 0 728 14 b 956 151 853 67 907 104 b 1065 315 1003 199 1039 253 b 1106 515 1092 378 1106 446 b 1065 717 1106 585 1092 653 b 956 881 1039 778 1003 832 b 792 990 907 928 853 964 b 590 1031 728 1017 660 1031 b 390 990 521 1031 453 1017 b 226 881 328 964 274 928 b 115 717 179 832 142 778 b 75 515 89 653 75 585 b 115 315 75 446 89 378 b 226 151 142 253 179 199 b 390 40 274 104 328 67 b 590 0 453 14 521 0 z m 590 869 b 840 765 685 869 774 832 b 944 515 907 699 944 610 b 840 265 944 421 907 332 b 590 161 774 199 685 161 b 340 265 496 161 407 199 b 236 515 274 332 236 421 b 340 765 236 610 274 699 b 590 869 407 832 496 869 z "},"s":{"ha":733,"x_min":0,"x_max":0,"o":"m 651 351 b 561 486 636 400 606 446 b 483 561 539 507 508 536 l 483 561 l 311 726 b 272 819 268 768 267 800 b 347 879 281 849 311 872 b 483 821 376 885 431 885 l 610 922 b 469 1026 569 971 522 1006 b 317 1038 419 1044 367 1049 b 193 979 271 1029 228 1008 b 117 864 156 947 129 908 b 119 733 104 822 106 776 b 199 610 133 689 160 647 l 325 490 b 451 368 331 485 406 411 b 499 251 481 340 513 299 b 390 165 486 210 443 175 b 296 174 360 158 326 161 b 194 254 258 188 224 215 l 67 154 b 238 22 115 92 172 49 b 360 0 276 7 318 0 b 422 6 381 0 401 1 b 654 207 535 28 625 107 b 651 351 668 254 667 304 z "},"{":{"ha":500,"x_min":0,"x_max":0,"o":"m 421 -178 l 421 -24 b 314 -11 382 -24 339 -24 b 289 54 306 -7 289 1 l 289 400 b 247 510 289 443 274 481 b 289 622 274 540 289 579 l 289 974 b 311 1039 289 1028 304 1036 b 421 1050 335 1050 378 1050 l 421 1206 b 243 1178 364 1206 299 1206 b 161 1099 207 1160 179 1133 b 133 974 143 1064 133 1024 l 133 622 b 131 611 133 614 132 613 b 111 600 129 610 125 606 b 33 590 83 590 49 590 l 33 436 l 33 436 b 101 425 33 436 69 436 b 131 410 119 419 128 413 b 133 400 133 407 133 406 l 133 54 b 164 -74 133 4 144 -39 b 247 -150 182 -107 211 -133 b 421 -178 303 -178 368 -178 z "},"}":{"ha":500,"x_min":0,"x_max":0,"o":"m 81 -178 b 254 -150 133 -178 199 -178 b 339 -74 290 -133 319 -107 b 368 54 358 -39 368 4 l 368 400 b 371 410 368 406 368 407 b 400 425 375 413 382 419 b 468 436 433 436 468 436 l 468 436 l 468 590 b 390 600 453 590 418 590 b 371 611 378 606 372 610 b 368 622 369 613 368 614 l 368 974 b 340 1099 368 1024 358 1064 b 258 1178 322 1133 294 1160 b 81 1206 203 1206 138 1206 l 81 1050 b 190 1039 124 1050 168 1050 b 214 974 197 1036 214 1028 l 214 622 b 254 510 214 579 228 540 b 214 400 228 481 214 443 l 214 54 b 188 -11 214 1 196 -7 b 81 -24 164 -24 119 -24 l 81 -178 z "},"|":{"ha":346,"x_min":0,"x_max":0,"o":"m 242 1108 l 108 1108 l 108 -233 l 242 -233 l 242 1108 z "},"~":{"ha":974,"x_min":0,"x_max":0,"o":"m 226 392 l 226 424 b 256 472 226 438 229 457 b 461 464 297 499 381 504 b 796 460 579 406 707 404 b 872 539 829 481 854 507 b 901 653 892 572 901 611 l 901 685 l 743 685 l 743 653 b 714 593 743 625 733 606 b 531 606 678 571 608 567 b 346 650 474 633 408 650 b 172 607 281 651 221 636 b 99 532 142 586 115 561 b 69 424 79 499 69 463 l 69 392 l 226 392 z "},"^":{"ha":696,"x_min":0,"x_max":0,"o":"m 188 510 l 351 758 l 508 510 l 658 510 l 356 1031 l 35 510 l 188 510 z "},"`":{"ha":314,"x_min":0,"x_max":0,"o":"m 251 860 l 183 1031 l 31 1031 l 150 860 l 251 860 z "},"Á":{"ha":965,"x_min":0,"x_max":0,"o":"m 407 1156 l 504 1156 l 649 1318 l 504 1318 z m 754 0 l 931 0 l 483 1078 l 35 0 l 213 0 l 300 221 l 667 221 l 754 0 z m 358 365 l 483 679 l 608 365 l 358 365 z "},"À":{"ha":965,"x_min":0,"x_max":0,"o":"m 604 1156 l 507 1318 l 363 1318 l 507 1156 l 604 1156 z m 754 0 l 931 0 l 483 1078 l 35 0 l 213 0 l 300 221 l 667 221 l 754 0 z m 358 365 l 483 679 l 608 365 l 358 365 z "},"Å":{"ha":965,"x_min":0,"x_max":0,"o":"m 482 1142 b 589 1249 542 1142 589 1189 b 482 1354 589 1307 542 1354 b 376 1249 424 1354 376 1307 b 482 1142 376 1189 424 1142 z m 482 1290 b 525 1249 506 1290 525 1271 b 482 1206 525 1225 506 1206 b 440 1249 460 1206 440 1225 b 482 1290 440 1271 460 1290 z m 754 0 l 931 0 l 483 1078 l 35 0 l 213 0 l 300 221 l 667 221 l 754 0 z m 358 365 l 483 679 l 608 365 l 358 365 z "},"Ä":{"ha":965,"x_min":0,"x_max":0,"o":"m 451 1247 b 381 1318 451 1286 419 1318 b 310 1247 342 1318 310 1286 b 381 1176 310 1208 342 1176 b 451 1247 419 1176 451 1208 z m 656 1247 b 585 1318 656 1286 624 1318 b 514 1247 546 1318 514 1286 b 585 1176 514 1208 546 1176 b 656 1247 624 1176 656 1208 z m 754 0 l 931 0 l 483 1078 l 35 0 l 213 0 l 300 221 l 667 221 l 754 0 z m 358 365 l 483 679 l 608 365 l 358 365 z "},"Ã":{"ha":965,"x_min":0,"x_max":0,"o":"m 668 1283 l 593 1283 l 593 1265 b 581 1242 593 1254 589 1247 b 551 1235 574 1238 564 1235 b 504 1247 536 1235 521 1239 b 421 1268 478 1260 450 1267 b 419 1268 421 1268 419 1268 b 343 1247 390 1268 364 1261 b 310 1214 329 1239 318 1228 b 296 1164 301 1199 296 1182 l 296 1147 l 372 1147 l 372 1164 b 383 1183 372 1171 374 1178 b 419 1192 392 1189 406 1192 b 471 1179 431 1192 450 1190 b 553 1160 497 1167 525 1160 b 621 1178 578 1160 601 1165 b 656 1214 636 1188 647 1199 b 668 1265 664 1229 668 1247 z m 754 0 l 931 0 l 483 1078 l 35 0 l 213 0 l 300 221 l 667 221 l 754 0 z m 358 365 l 483 679 l 608 365 l 358 365 z "},"Â":{"ha":965,"x_min":0,"x_max":0,"o":"m 622 1156 l 488 1318 l 342 1157 l 396 1108 l 485 1207 l 567 1108 z m 754 0 l 931 0 l 483 1078 l 35 0 l 213 0 l 300 221 l 667 221 l 754 0 z m 358 365 l 483 679 l 608 365 l 358 365 z "},"Æ":{"ha":1318,"x_min":0,"x_max":0,"o":"m 869 146 l 736 465 l 1017 465 l 1017 611 l 676 611 l 563 886 l 918 886 l 918 1031 l 503 1031 l 483 1078 l 35 0 l 213 0 l 300 221 l 667 221 l 754 0 l 753 0 l 753 0 l 1283 0 l 1283 146 l 869 146 z m 358 365 l 483 679 l 608 365 l 358 365 z "},"È":{"ha":808,"x_min":0,"x_max":0,"o":"m 269 886 l 269 611 l 646 611 l 646 465 l 269 465 l 269 146 l 726 146 l 726 0 l 268 0 l 268 0 l 108 0 l 108 1031 l 268 1031 l 268 1031 l 726 1031 l 726 886 l 269 886 z m 554 1142 l 457 1304 l 311 1304 l 457 1142 l 554 1142 z "},"É":{"ha":808,"x_min":0,"x_max":0,"o":"m 269 886 l 726 886 l 726 1031 l 268 1031 l 268 1031 l 108 1031 l 108 0 l 268 0 l 268 0 l 726 0 l 726 146 l 269 146 l 269 465 l 646 465 l 646 611 l 269 611 z m 311 1142 l 408 1142 l 554 1304 l 408 1304 z "},"Ê":{"ha":808,"x_min":0,"x_max":0,"o":"m 269 886 l 726 886 l 726 1031 l 268 1031 l 268 1031 l 108 1031 l 108 0 l 268 0 l 268 0 l 726 0 l 726 146 l 269 146 l 269 465 l 646 465 l 646 611 l 269 611 z m 558 1183 l 422 1346 l 278 1185 l 332 1136 l 419 1235 l 503 1136 z "},"Ë":{"ha":808,"x_min":0,"x_max":0,"o":"m 269 886 l 726 886 l 726 1031 l 268 1031 l 268 1031 l 108 1031 l 108 0 l 268 0 l 268 0 l 726 0 l 726 146 l 269 146 l 269 465 l 646 465 l 646 611 l 269 611 z m 386 1233 b 315 1304 386 1272 354 1304 b 244 1233 276 1304 244 1272 b 315 1163 244 1194 276 1163 b 386 1233 354 1163 386 1194 z m 590 1233 b 519 1304 590 1272 558 1304 b 449 1233 481 1304 449 1272 b 519 1163 449 1194 481 1163 b 590 1233 558 1163 590 1194 z "},"Ì":{"ha":396,"x_min":0,"x_max":0,"o":"m 279 0 l 118 0 l 118 1031 l 279 1031 l 279 0 z m 264 1142 l 168 1304 l 22 1304 l 168 1142 l 264 1142 z "},"Í":{"ha":396,"x_min":0,"x_max":0,"o":"m 117 0 l 278 0 l 278 1031 l 117 1031 l 117 0 z m 132 1142 l 229 1142 l 374 1304 l 229 1304 z "},"Î":{"ha":378,"x_min":0,"x_max":0,"o":"m 110 0 l 271 0 l 271 1031 l 110 1031 l 110 0 z m 331 1183 l 194 1346 l 50 1185 l 104 1136 l 193 1235 l 275 1136 z "},"Ï":{"ha":378,"x_min":0,"x_max":0,"o":"m 110 0 l 271 0 l 271 1031 l 110 1031 l 110 0 z m 160 1233 b 89 1304 160 1272 128 1304 b 17 1233 49 1304 17 1272 b 89 1163 17 1194 49 1163 b 160 1233 128 1163 160 1194 z m 364 1233 b 293 1304 364 1272 332 1304 b 221 1233 253 1304 221 1272 b 293 1163 221 1194 253 1163 b 364 1233 332 1163 364 1194 z "},"Ü":{"ha":960,"x_min":0,"x_max":0,"o":"m 481 0 b 736 82 578 0 668 29 b 828 193 775 113 806 150 b 863 350 850 240 863 293 l 863 1031 l 700 1031 l 700 350 b 638 210 700 289 679 242 b 481 161 597 179 540 161 b 324 210 419 161 363 179 b 260 350 282 242 260 289 l 260 1031 l 99 1031 l 99 350 b 133 193 99 293 110 240 b 225 82 154 150 185 113 b 481 0 293 29 383 0 z m 449 1233 b 378 1304 449 1272 417 1304 b 307 1233 339 1304 307 1272 b 378 1163 307 1194 339 1163 b 449 1233 417 1163 449 1194 z m 653 1233 b 582 1304 653 1272 621 1304 b 511 1233 543 1304 511 1272 b 582 1163 511 1194 543 1163 b 653 1233 621 1163 653 1194 z "},"Û":{"ha":960,"x_min":0,"x_max":0,"o":"m 481 0 b 736 82 578 0 668 29 b 828 193 775 113 806 150 b 863 350 850 240 863 293 l 863 1031 l 700 1031 l 700 350 b 638 210 700 289 679 242 b 481 161 597 179 540 161 b 324 210 419 161 363 179 b 260 350 282 242 260 289 l 260 1031 l 99 1031 l 99 350 b 133 193 99 293 110 240 b 225 82 154 150 185 113 b 481 0 293 29 383 0 z m 621 1183 l 485 1346 l 340 1185 l 394 1136 l 483 1235 l 565 1136 z "},"Ú":{"ha":960,"x_min":0,"x_max":0,"o":"m 481 0 b 736 82 578 0 668 29 b 828 193 775 113 806 150 b 863 350 850 240 863 293 l 863 1031 l 700 1031 l 700 350 b 638 210 700 289 679 242 b 481 161 597 179 540 161 b 324 210 419 161 363 179 b 260 350 282 242 260 289 l 260 1031 l 99 1031 l 99 350 b 133 193 99 293 110 240 b 225 82 154 150 185 113 b 481 0 293 29 383 0 z m 360 1142 l 456 1142 l 601 1304 l 456 1304 z "},"Ù":{"ha":960,"x_min":0,"x_max":0,"o":"m 481 0 b 225 82 383 0 293 29 b 133 193 185 113 154 150 b 99 350 110 240 99 293 l 99 1031 l 260 1031 l 260 350 b 324 210 260 289 282 242 b 481 161 363 179 419 161 b 638 210 540 161 597 179 b 700 350 679 242 700 289 l 700 1031 l 863 1031 l 863 350 b 828 193 863 293 850 240 b 736 82 806 150 775 113 b 481 0 668 29 578 0 z m 601 1142 l 504 1304 l 360 1304 l 504 1142 l 601 1142 z "},"Õ":{"ha":1179,"x_min":0,"x_max":0,"o":"m 590 0 b 792 40 660 0 728 14 b 956 151 853 67 907 104 b 1065 315 1003 199 1039 253 b 1106 515 1092 378 1106 446 b 1065 717 1106 585 1092 653 b 956 881 1039 778 1003 832 b 792 990 907 928 853 964 b 590 1031 728 1017 660 1031 b 390 990 521 1031 453 1017 b 226 881 328 964 274 928 b 115 717 179 832 142 778 b 75 515 89 653 75 585 b 115 315 75 446 89 378 b 226 151 142 253 179 199 b 390 40 274 104 328 67 b 590 0 453 14 521 0 z m 590 869 b 840 765 685 869 774 832 b 944 515 907 699 944 610 b 840 265 944 421 907 332 b 590 161 774 199 685 161 b 340 265 496 161 407 199 b 236 515 274 332 236 421 b 340 765 236 610 274 699 b 590 869 407 832 496 869 z m 776 1269 l 701 1269 l 701 1251 b 689 1228 701 1240 697 1233 b 660 1221 682 1224 672 1221 b 613 1233 644 1221 628 1225 b 529 1254 586 1246 557 1253 b 528 1254 528 1254 528 1254 b 451 1233 499 1254 472 1247 b 418 1200 438 1225 425 1214 b 404 1150 408 1185 404 1168 l 404 1133 l 481 1133 l 481 1150 b 492 1169 481 1157 482 1164 b 528 1178 500 1175 513 1178 b 579 1165 539 1178 558 1176 b 660 1146 606 1153 633 1146 b 729 1164 686 1146 710 1151 b 764 1200 743 1174 756 1185 b 776 1251 772 1215 776 1233 z "},"Ö":{"ha":1179,"x_min":0,"x_max":0,"o":"m 590 0 b 792 40 660 0 728 14 b 956 151 853 67 907 104 b 1065 315 1003 199 1039 253 b 1106 515 1092 378 1106 446 b 1065 717 1106 585 1092 653 b 956 881 1039 778 1003 832 b 792 990 907 928 853 964 b 590 1031 728 1017 660 1031 b 390 990 521 1031 453 1017 b 226 881 328 964 274 928 b 115 717 179 832 142 778 b 75 515 89 653 75 585 b 115 315 75 446 89 378 b 226 151 142 253 179 199 b 390 40 274 104 328 67 b 590 0 453 14 521 0 z m 590 869 b 840 765 685 869 774 832 b 944 515 907 699 944 610 b 840 265 944 421 907 332 b 590 161 774 199 685 161 b 340 265 496 161 407 199 b 236 515 274 332 236 421 b 340 765 236 610 274 699 b 590 869 407 832 496 869 z m 560 1233 b 489 1304 560 1272 528 1304 b 417 1233 449 1304 417 1272 b 489 1163 417 1194 449 1163 b 560 1233 528 1163 560 1194 z m 764 1233 b 693 1304 764 1272 732 1304 b 621 1233 653 1304 621 1272 b 693 1163 621 1194 653 1163 b 764 1233 732 1163 764 1194 z "},"Ô":{"ha":1179,"x_min":0,"x_max":0,"o":"m 590 0 b 792 40 660 0 728 14 b 956 151 853 67 907 104 b 1065 315 1003 199 1039 253 b 1106 515 1092 378 1106 446 b 1065 717 1106 585 1092 653 b 956 881 1039 778 1003 832 b 792 990 907 928 853 964 b 590 1031 728 1017 660 1031 b 390 990 521 1031 453 1017 b 226 881 328 964 274 928 b 115 717 179 832 142 778 b 75 515 89 653 75 585 b 115 315 75 446 89 378 b 226 151 142 253 179 199 b 390 40 274 104 328 67 b 590 0 453 14 521 0 z m 590 869 b 840 765 685 869 774 832 b 944 515 907 699 944 610 b 840 265 944 421 907 332 b 590 161 774 199 685 161 b 340 265 496 161 407 199 b 236 515 274 332 236 421 b 340 765 236 610 274 699 b 590 869 407 832 496 869 z m 731 1183 l 594 1346 l 450 1185 l 504 1136 l 593 1235 l 675 1136 z "},"Ó":{"ha":1179,"x_min":0,"x_max":0,"o":"m 590 0 b 792 40 660 0 728 14 b 956 151 853 67 907 104 b 1065 315 1003 199 1039 253 b 1106 515 1092 378 1106 446 b 1065 717 1106 585 1092 653 b 956 881 1039 778 1003 832 b 792 990 907 928 853 964 b 590 1031 728 1017 660 1031 b 390 990 521 1031 453 1017 b 226 881 328 964 274 928 b 115 717 179 832 142 778 b 75 515 89 653 75 585 b 115 315 75 446 89 378 b 226 151 142 253 179 199 b 390 40 274 104 328 67 b 590 0 453 14 521 0 z m 590 869 b 840 765 685 869 774 832 b 944 515 907 699 944 610 b 840 265 944 421 907 332 b 590 161 774 199 685 161 b 340 265 496 161 407 199 b 236 515 274 332 236 421 b 340 765 236 610 274 699 b 590 869 407 832 496 869 z m 546 1142 l 643 1142 l 788 1304 l 643 1304 z "},"Ò":{"ha":1179,"x_min":0,"x_max":0,"o":"m 590 0 b 390 40 521 0 453 14 b 226 151 328 67 274 104 b 115 315 179 199 142 253 b 75 515 89 378 75 446 b 115 717 75 585 89 653 b 226 881 142 778 179 832 b 390 990 274 928 328 964 b 590 1031 453 1017 521 1031 b 792 990 660 1031 728 1017 b 956 881 853 964 907 928 b 1065 717 1003 832 1039 778 b 1106 515 1092 653 1106 585 b 1065 315 1106 446 1092 378 b 956 151 1039 253 1003 199 b 792 40 907 104 853 67 b 590 0 728 14 660 0 z m 590 869 b 340 765 496 869 407 832 b 236 515 274 699 236 610 b 340 265 236 421 274 332 b 590 161 407 199 496 161 b 840 265 685 161 774 199 b 944 515 907 332 944 421 b 840 765 944 610 907 699 b 590 869 774 832 685 869 z m 642 1142 l 546 1304 l 400 1304 l 546 1142 l 642 1142 z "},"Ø":{"ha":1176,"x_min":0,"x_max":0,"o":"m 1064 717 b 954 881 1038 778 1001 832 b 946 888 951 882 949 885 l 1094 1090 l 933 1090 l 842 965 b 790 990 825 975 807 983 b 767 1000 782 993 775 997 b 589 1031 710 1021 650 1031 b 389 990 519 1031 451 1017 b 225 881 326 964 272 928 b 114 717 178 832 140 778 b 74 515 88 653 74 585 b 114 315 74 446 88 378 b 225 151 140 253 178 199 b 233 143 228 149 231 146 l 83 -60 l 244 -60 l 338 65 b 389 40 353 57 371 49 b 411 32 396 38 404 35 b 589 0 468 11 528 0 b 790 40 658 0 726 14 b 954 151 851 67 906 104 b 1064 315 1001 199 1038 253 b 1104 515 1090 378 1104 446 b 1064 717 1104 585 1090 653 z m 235 515 b 339 765 235 610 272 699 b 589 869 406 832 494 869 b 689 856 624 869 657 864 b 744 833 708 850 726 842 l 331 274 b 235 515 268 340 235 425 z m 839 265 b 589 161 772 199 683 161 b 489 176 554 161 521 167 b 433 197 469 182 451 189 l 849 757 b 943 515 910 690 943 606 b 839 265 943 421 906 332 z "},"Ñ":{"ha":1025,"x_min":0,"x_max":0,"o":"m 699 1269 l 624 1269 l 624 1251 b 611 1228 624 1240 619 1233 b 582 1221 604 1224 594 1221 b 535 1233 567 1221 550 1225 b 451 1254 508 1246 479 1253 b 450 1254 451 1254 450 1254 b 374 1233 421 1254 394 1247 b 340 1200 360 1225 349 1214 b 326 1150 332 1185 326 1168 l 326 1133 l 403 1133 l 403 1150 b 414 1169 403 1157 404 1164 b 450 1178 422 1175 436 1178 b 501 1165 461 1178 481 1176 b 583 1146 528 1153 556 1146 b 651 1164 608 1146 632 1151 b 686 1200 667 1174 678 1185 b 699 1251 694 1215 699 1233 z m 918 -47 l 918 1031 l 756 1031 l 756 369 l 108 1079 l 108 0 l 269 0 l 269 663 z "},"Ý":{"ha":956,"x_min":0,"x_max":0,"o":"m 921 1031 l 749 1031 l 479 664 l 210 1031 l 36 1031 l 399 539 l 399 0 l 560 0 l 560 539 z m 388 1142 l 485 1142 l 629 1304 l 485 1304 z "},"Ð":{"ha":1031,"x_min":0,"x_max":0,"o":"m 836 876 b 671 990 792 926 736 965 b 446 1031 604 1018 529 1031 l 363 1031 l 363 1031 l 201 1031 l 201 585 l 108 585 l 108 446 l 201 446 l 201 0 l 256 0 l 446 0 b 671 40 529 0 604 14 b 836 154 736 65 792 104 b 961 515 918 244 961 369 b 836 876 961 661 918 786 z m 717 263 b 446 161 656 196 565 161 l 363 161 l 363 446 l 535 446 l 535 585 l 363 585 l 363 869 l 446 869 b 717 768 565 869 656 836 b 800 515 771 708 800 621 b 717 263 800 410 771 322 z "},"˜":{"ha":518,"x_min":0,"x_max":0,"o":"m 444 1031 l 368 1031 l 368 1014 b 357 990 368 1003 365 994 b 328 983 350 986 339 983 b 281 996 313 983 296 988 b 197 1015 254 1008 225 1015 b 194 1015 196 1015 196 1015 b 119 996 167 1015 140 1008 b 85 961 104 988 93 975 b 72 913 76 947 72 931 l 72 896 l 147 896 l 147 913 b 158 932 147 918 149 925 b 194 940 168 938 181 940 b 246 928 207 940 226 938 b 328 907 272 914 301 907 b 397 926 354 907 378 914 b 432 963 411 935 424 947 b 444 1014 440 978 444 994 l 444 1031 z "},"Þ":{"ha":789,"x_min":0,"x_max":0,"o":"m 678 800 b 421 903 636 846 557 903 l 269 903 l 269 1031 l 108 1031 l 108 0 l 269 0 l 269 219 l 421 219 b 678 322 557 219 636 275 b 761 561 732 382 761 465 b 678 800 761 657 732 739 z m 571 419 b 421 365 538 383 488 365 l 269 365 l 269 757 l 421 757 b 571 701 488 757 538 739 b 617 561 608 660 617 601 b 571 419 617 519 608 461 z "},"Ç":{"ha":940,"x_min":0,"x_max":0,"o":"m 831 265 b 581 161 764 199 675 161 b 331 265 486 161 397 199 b 226 515 264 332 226 421 b 331 765 226 610 264 699 b 581 869 397 833 486 869 b 804 790 664 869 742 842 l 804 981 b 782 990 797 983 789 988 b 581 1031 718 1018 650 1031 b 381 990 511 1031 443 1018 b 217 881 318 965 264 928 b 106 717 169 833 132 778 b 65 515 79 653 65 585 b 106 315 65 446 79 378 b 217 151 132 253 169 199 b 381 40 264 104 318 67 b 496 7 417 25 456 14 l 414 -107 l 486 -119 b 542 -143 510 -124 529 -132 b 560 -169 551 -151 558 -160 b 544 -204 563 -183 557 -196 b 514 -211 538 -208 526 -211 b 494 -210 508 -211 501 -211 b 393 -160 465 -204 429 -186 l 382 -151 l 326 -224 l 338 -232 b 479 -300 386 -269 435 -292 b 514 -303 490 -301 503 -303 l 514 -303 b 593 -282 544 -303 571 -296 b 650 -153 638 -254 660 -203 b 601 -74 643 -122 628 -94 b 567 -50 592 -64 579 -57 l 603 0 b 782 40 665 3 725 17 b 865 85 811 53 839 68 l 865 304 b 831 265 854 290 843 278 z "},"ß":{"ha":849,"x_min":0,"x_max":0,"o":"m 779 311 b 624 568 779 408 726 507 b 679 661 649 594 668 626 b 678 829 697 715 696 775 b 575 968 658 885 624 932 b 403 1031 526 1003 467 1025 b 229 999 340 1035 279 1024 b 108 811 153 960 108 892 l 108 0 l 269 0 l 269 811 b 301 854 269 819 269 838 b 479 838 346 876 426 876 b 526 713 521 807 540 756 b 357 631 508 660 447 631 l 342 631 l 342 468 b 372 468 342 468 367 468 l 372 468 b 565 413 475 468 535 438 b 618 311 600 385 618 349 b 568 215 618 275 600 242 b 376 161 538 190 481 161 l 342 161 l 342 0 l 376 0 b 669 89 496 0 597 31 b 751 190 706 118 733 151 b 779 311 771 229 779 269 z "},"´":{"ha":313,"x_min":0,"x_max":0,"o":"m 61 860 l 163 860 l 282 1031 l 129 1031 l 61 860 z "},"ˆ":{"ha":367,"x_min":0,"x_max":0,"o":"m 322 869 l 186 1031 l 42 871 l 96 822 l 185 919 l 267 822 l 322 869 z "},"˚":{"ha":361,"x_min":0,"x_max":0,"o":"m 182 818 b 288 925 240 818 288 865 b 182 1031 288 983 240 1031 b 75 925 122 1031 75 983 b 182 818 75 865 122 818 z m 182 967 b 224 925 204 967 224 947 b 182 882 224 901 204 882 b 139 925 158 882 139 901 b 182 967 139 947 158 967 z "},"¸":{"ha":436,"x_min":0,"x_max":0,"o":"m 300 -282 b 356 -153 343 -254 365 -203 b 308 -74 350 -122 333 -94 b 274 -50 297 -64 286 -57 l 310 0 l 196 0 l 119 -107 l 192 -119 b 249 -143 215 -124 235 -132 b 265 -169 258 -151 264 -160 b 251 -204 268 -183 263 -196 b 221 -211 243 -208 232 -211 b 201 -210 214 -211 208 -211 b 99 -160 171 -204 136 -186 l 89 -151 l 33 -224 l 44 -232 b 185 -300 93 -269 140 -292 b 219 -303 197 -301 208 -303 l 221 -303 b 300 -282 250 -303 276 -296 z "},"ˇ":{"ha":365,"x_min":0,"x_max":0,"o":"m 322 983 l 267 1031 l 185 932 l 96 1031 l 42 982 l 186 822 l 322 983 z "},"Š":{"ha":733,"x_min":0,"x_max":0,"o":"m 506 1299 l 450 1344 l 368 1247 l 279 1346 l 225 1297 l 369 1136 l 506 1299 z m 651 351 b 561 486 636 400 606 446 b 483 561 539 507 508 536 l 483 561 l 311 726 b 272 819 268 768 267 800 b 347 879 281 849 311 872 b 483 821 376 885 431 885 l 610 922 b 469 1026 569 971 522 1006 b 317 1038 419 1044 367 1049 b 193 979 271 1029 228 1008 b 117 864 156 947 129 908 b 119 733 104 822 106 776 b 199 610 133 689 160 647 l 325 490 b 451 368 331 485 406 411 b 499 251 481 340 513 299 b 390 165 486 210 443 175 b 296 174 360 158 326 161 b 194 254 258 188 224 215 l 67 154 b 238 22 115 92 172 49 b 360 0 276 7 318 0 b 422 6 381 0 401 1 b 654 207 535 28 625 107 b 651 351 668 254 667 304 z "},"Ž":{"ha":979,"x_min":0,"x_max":0,"o":"m 619 1299 l 564 1344 l 482 1247 l 393 1346 l 339 1297 l 483 1136 l 619 1299 z m 874 0 l 71 0 l 600 869 l 186 869 l 186 1031 l 888 1031 l 358 161 l 874 161 l 874 0 z "},"Œ":{"ha":1686,"x_min":0,"x_max":0,"o":"m 1604 886 l 1604 1031 l 1146 1031 l 1146 1031 l 986 1031 l 986 890 b 833 990 942 932 890 967 b 632 1031 769 1017 701 1031 b 432 990 563 1031 494 1017 b 268 881 369 964 315 928 b 157 717 221 832 183 778 b 117 515 131 653 117 585 b 157 315 117 446 131 378 b 268 151 183 253 221 199 b 432 40 315 104 369 67 b 632 0 494 14 563 0 b 833 40 701 0 769 14 b 986 140 890 64 942 99 l 986 0 l 1146 0 l 1146 0 l 1604 0 l 1604 146 l 1147 146 l 1147 465 l 1524 465 l 1524 611 l 1147 611 l 1147 886 l 1604 886 z m 882 265 b 632 161 815 199 726 161 b 382 265 538 161 449 199 b 278 515 315 332 278 421 b 382 765 278 610 315 699 b 632 869 449 832 538 869 b 882 765 726 869 815 832 b 986 515 949 699 986 610 b 882 265 986 421 949 332 z "},"Ł":{"ha":806,"x_min":0,"x_max":0,"o":"m 783 146 l 353 146 l 353 489 l 561 603 l 561 742 l 353 628 l 353 1031 l 192 1031 l 192 539 l 57 464 l 57 325 l 192 400 l 192 0 l 351 0 l 351 0 l 783 0 l 783 146 z "},"_":{"ha":1083,"x_min":0,"x_max":0,"o":"m 975 -236 l 975 -97 l 108 -97 l 108 -236 l 975 -236 z "},"–":{"ha":761,"x_min":0,"x_max":0,"o":"m 654 446 l 654 585 l 108 585 l 108 446 l 654 446 z "},"—":{"ha":1163,"x_min":0,"x_max":0,"o":"m 1054 446 l 1054 585 l 108 585 l 108 446 l 1054 446 z "},"−":{"ha":1054,"x_min":0,"x_max":0,"o":"m 946 446 l 946 585 l 108 585 l 108 446 l 946 446 z "},"¿":{"ha":817,"x_min":0,"x_max":0,"o":"m 446 597 b 539 690 497 597 539 639 b 446 783 539 742 497 783 b 353 690 394 783 353 742 b 446 597 353 639 394 597 z m 117 -179 b 397 -303 174 -256 282 -303 b 508 -287 436 -303 472 -299 b 678 -183 578 -269 636 -233 b 747 6 721 -132 746 -67 l 576 6 b 538 -97 575 -36 563 -71 b 458 -144 518 -119 492 -135 b 397 -151 439 -149 418 -151 b 340 -144 378 -151 360 -150 b 258 -96 304 -136 275 -118 b 249 14 238 -68 235 -29 b 338 151 264 56 293 103 b 357 171 343 157 349 164 b 464 310 401 215 436 260 b 528 532 503 379 525 454 b 446 513 511 522 483 513 b 357 532 403 513 374 522 b 313 379 354 479 339 428 b 229 271 292 342 265 307 b 206 246 221 263 213 254 b 75 15 133 167 89 89 b 117 -179 61 -57 75 -124 z "},"£":{"ha":813,"x_min":0,"x_max":0,"o":"m 735 163 l 297 163 b 331 383 317 246 328 318 l 517 383 l 517 529 l 322 529 b 310 597 319 554 314 576 b 296 713 303 638 296 671 b 368 847 296 789 335 828 b 521 851 415 874 478 876 b 571 756 554 833 571 800 l 732 756 b 697 897 732 808 721 857 b 603 992 675 936 642 969 b 286 988 508 1046 385 1044 b 133 713 189 931 133 831 b 151 565 133 656 143 610 b 158 529 154 554 156 542 l 67 529 l 67 383 l 168 383 b 115 103 164 315 150 228 l 86 0 l 735 0 l 735 163 z "},"¥":{"ha":1039,"x_min":0,"x_max":0,"o":"m 664 571 l 994 1031 l 806 1031 l 519 633 l 233 1031 l 44 1031 l 375 571 l 172 571 l 172 432 l 439 432 l 439 353 l 172 353 l 172 214 l 439 214 l 439 0 l 600 0 l 600 214 l 867 214 l 867 353 l 600 353 l 600 432 l 867 432 l 867 571 l 664 571 z "},"¢":{"ha":649,"x_min":0,"x_max":0,"o":"m 543 307 b 517 292 535 301 526 297 b 414 267 485 276 450 268 l 414 765 b 514 740 449 764 483 756 l 564 843 b 414 878 517 865 467 878 l 414 975 l 317 975 l 317 867 b 265 850 299 863 282 857 b 150 772 222 832 183 806 b 72 657 117 739 90 700 b 43 515 53 613 43 564 b 72 374 43 467 53 419 b 150 258 90 331 117 292 b 265 181 183 225 222 200 b 317 164 282 174 299 168 l 317 56 l 414 56 l 414 153 b 568 190 468 154 519 167 b 607 213 581 197 594 204 l 543 307 z m 317 283 b 231 339 285 296 256 314 b 157 515 183 386 157 449 b 231 692 157 582 183 644 b 317 749 256 717 285 736 l 317 283 z "},"€":{"ha":918,"x_min":0,"x_max":0,"o":"m 828 54 l 751 197 b 610 161 707 174 660 161 b 322 354 485 161 376 240 l 703 354 l 703 483 l 288 483 b 286 515 288 494 286 504 b 288 547 286 526 288 538 l 703 547 l 703 676 l 322 676 b 610 869 376 792 485 869 b 749 836 658 869 704 858 l 822 979 b 610 1031 756 1014 685 1031 b 419 989 543 1031 479 1017 b 265 878 361 963 310 925 b 149 676 211 821 172 751 l 46 676 l 46 547 l 126 547 b 125 515 125 538 125 526 b 126 483 125 504 125 494 l 46 483 l 46 354 l 149 354 b 265 153 172 279 211 211 b 419 42 310 106 361 68 b 610 0 479 14 543 0 b 828 54 686 0 760 18 z "},"%":{"ha":975,"x_min":0,"x_max":0,"o":"m 272 0 l 835 1031 l 701 1031 l 139 0 z m 246 544 b 324 567 275 544 301 553 b 375 625 344 581 363 600 b 407 788 396 665 407 721 b 375 950 407 856 397 910 b 325 1008 363 975 344 994 b 246 1031 301 1024 275 1031 b 168 1008 217 1031 190 1024 b 117 950 147 994 129 975 b 85 788 96 910 85 856 b 117 625 85 721 96 665 b 168 567 131 600 147 581 b 246 544 190 553 217 544 z m 246 954 b 308 915 275 954 293 943 b 331 788 324 886 331 842 b 308 661 331 733 324 690 b 246 621 293 633 274 621 b 185 661 218 621 199 633 b 161 788 169 690 161 733 b 185 915 161 842 169 886 b 246 954 199 943 218 954 z m 729 486 b 650 464 700 486 674 479 b 600 406 631 450 613 431 b 568 243 578 365 568 311 b 600 81 568 175 578 121 b 650 22 613 56 629 36 b 729 0 674 7 700 0 b 807 22 758 0 785 7 b 858 81 828 36 846 56 b 890 243 879 121 890 175 b 858 406 890 310 879 365 b 807 464 844 431 828 450 b 729 486 785 479 758 486 z m 729 76 b 667 115 700 76 682 89 b 644 243 651 144 644 189 b 667 371 644 297 651 342 b 729 410 682 397 700 410 b 790 371 757 410 776 397 b 814 243 806 342 814 297 b 790 115 814 189 806 144 b 729 76 776 89 757 76 z "},"×":{"ha":757,"x_min":0,"x_max":0,"o":"m 474 515 l 674 717 l 626 764 l 579 811 l 379 610 l 178 811 l 83 717 l 283 515 l 83 315 l 131 268 l 178 219 l 379 421 l 579 219 l 626 268 l 674 315 l 474 515 z "},"÷":{"ha":875,"x_min":0,"x_max":0,"o":"m 857 451 l 857 579 l 19 579 l 19 451 z m 535 265 b 438 363 535 319 492 363 b 340 265 385 363 340 319 b 438 168 340 213 385 168 b 535 265 492 168 535 213 z m 535 765 b 438 863 535 819 492 863 b 340 765 385 863 340 819 b 438 668 340 713 385 668 b 535 765 492 668 535 713 z "},"¼":{"ha":953,"x_min":0,"x_max":0,"o":"m 189 881 l 189 546 l 265 546 l 265 1032 l 83 897 l 129 836 l 189 881 z m 674 1031 l 111 0 l 244 0 l 807 1031 l 674 1031 z m 818 160 l 818 508 l 500 85 l 742 85 l 742 0 l 818 0 l 818 85 l 863 85 l 863 160 l 818 160 z m 742 160 l 651 160 l 742 281 l 742 160 z "},"½":{"ha":975,"x_min":0,"x_max":0,"o":"m 672 1031 l 110 0 l 243 0 l 806 1031 l 672 1031 z m 188 881 l 188 546 l 264 546 l 264 1032 l 82 897 l 128 836 l 188 881 z m 711 76 b 844 254 769 154 803 200 b 885 344 867 285 881 315 b 869 425 889 374 883 401 b 731 485 843 469 788 493 b 653 447 701 479 675 467 b 611 385 635 431 621 410 l 679 344 b 704 390 683 364 693 379 b 743 408 715 400 728 406 b 804 385 768 413 793 403 b 808 356 808 376 810 367 b 782 300 807 339 797 321 b 603 61 732 233 692 181 l 556 0 l 896 0 l 896 76 l 711 76 z "},"¾":{"ha":969,"x_min":0,"x_max":0,"o":"m 743 1031 l 181 0 l 314 0 l 876 1031 l 743 1031 z m 300 642 b 115 667 254 607 186 615 l 71 604 b 224 544 124 568 175 547 b 236 544 228 544 232 544 b 346 581 276 544 314 557 b 408 667 375 601 396 632 b 408 769 419 700 419 736 b 344 849 397 801 375 829 b 283 872 326 860 306 867 l 369 1031 l 101 1031 l 101 956 l 242 956 l 158 801 l 222 801 b 304 783 257 803 285 796 b 338 744 321 774 332 761 b 300 642 349 710 333 667 z m 831 508 l 514 85 l 754 85 l 754 0 l 831 0 l 831 85 l 876 85 l 876 160 l 831 160 l 831 508 z m 754 160 l 665 160 l 754 281 l 754 160 z "},"¹":{"ha":289,"x_min":0,"x_max":0,"o":"m 183 685 l 183 1171 l 1 1035 l 47 974 l 107 1019 l 107 685 l 183 685 z "},"²":{"ha":489,"x_min":0,"x_max":0,"o":"m 218 761 b 351 939 276 839 310 885 b 392 1029 374 969 388 1000 b 376 1110 396 1058 390 1086 b 238 1169 350 1154 294 1178 b 160 1132 208 1164 182 1151 b 118 1069 142 1115 128 1094 l 186 1029 b 213 1075 192 1049 200 1064 b 250 1093 222 1085 235 1090 b 311 1069 275 1097 300 1088 b 315 1040 315 1063 318 1051 b 289 985 314 1024 304 1006 b 110 746 239 918 199 865 l 63 685 l 403 685 l 403 761 l 218 761 z "},"³":{"ha":488,"x_min":0,"x_max":0,"o":"m 301 781 b 115 806 256 747 188 756 l 72 744 b 225 685 124 707 175 688 b 236 685 229 685 233 685 b 347 721 278 685 315 697 b 408 806 375 742 397 772 b 410 908 419 840 421 876 b 344 989 399 942 376 969 b 283 1013 326 999 307 1007 l 371 1171 l 103 1171 l 103 1094 l 243 1094 l 158 942 l 224 942 b 306 924 257 942 285 936 b 338 885 321 914 332 901 b 301 781 350 850 335 806 z "},"@":{"ha":896,"x_min":0,"x_max":0,"o":"m 757 700 b 668 771 733 728 703 753 b 558 804 635 788 599 799 b 275 740 461 818 358 794 b 164 629 231 711 193 674 b 104 468 133 582 113 528 b 79 285 104 467 79 285 b 81 167 74 243 74 204 b 142 40 90 118 111 75 b 294 -57 179 -3 231 -35 b 557 -94 365 -82 454 -94 l 557 -1 b 325 31 464 -1 386 10 b 213 100 276 47 238 71 b 171 272 175 143 161 201 b 197 456 171 272 197 454 b 326 663 213 567 276 629 b 433 707 358 683 394 699 b 546 713 471 715 510 717 b 686 640 604 704 654 678 b 722 569 703 619 715 596 b 725 468 729 539 731 506 l 700 285 b 619 135 685 176 639 143 b 594 129 608 129 600 129 l 640 456 b 558 607 650 524 619 581 b 431 617 521 624 475 626 b 317 549 385 606 344 582 l 390 490 b 521 522 419 528 483 538 b 547 468 543 513 551 496 l 543 431 l 428 431 b 311 386 382 431 342 415 b 261 283 285 360 267 325 b 289 169 254 238 264 199 b 397 126 307 150 339 126 l 500 126 b 532 57 499 100 510 74 b 651 47 563 33 608 29 b 739 122 685 61 715 88 b 792 272 765 161 783 213 l 818 456 b 757 700 831 551 810 636 z m 511 210 l 397 210 b 353 225 382 210 363 213 b 344 272 344 235 342 251 b 369 325 347 294 356 313 b 428 346 383 339 403 346 l 531 346 l 511 210 z "},"™":{"ha":1156,"x_min":0,"x_max":0,"o":"m 78 1007 l 231 1007 l 231 531 l 318 531 l 318 1007 l 471 1007 l 471 1086 l 78 1086 l 78 1007 z m 788 722 l 526 1111 l 526 531 l 614 531 l 614 825 l 788 567 l 961 825 l 961 531 l 1049 531 l 1049 1111 l 788 722 z "},"‚":{"ha":393,"x_min":0,"x_max":0,"o":"m 283 97 b 186 193 283 150 239 193 b 89 97 132 193 89 150 b 181 0 89 44 129 3 l 147 -149 l 203 -149 l 276 61 l 276 61 b 283 97 281 72 283 83 z "},"„":{"ha":608,"x_min":0,"x_max":0,"o":"m 283 97 b 186 193 283 150 239 193 b 89 97 132 193 89 150 b 181 0 89 44 129 3 l 147 -149 l 203 -149 l 276 61 l 276 61 b 283 97 281 72 283 83 z m 499 97 b 401 193 499 150 454 193 b 304 97 347 193 304 150 b 396 0 304 44 344 3 l 363 -149 l 418 -149 l 492 61 l 492 61 b 499 97 496 72 499 83 z "},"†":{"ha":617,"x_min":0,"x_max":0,"o":"m 601 835 l 378 835 l 378 1086 l 239 1086 l 239 835 l 15 835 l 15 710 l 239 710 l 239 -200 l 378 -200 l 378 710 l 601 710 l 601 835 z "},"‡":{"ha":629,"x_min":0,"x_max":0,"o":"m 385 710 l 608 710 l 608 835 l 385 835 l 385 1086 l 246 1086 l 246 835 l 22 835 l 22 710 l 246 710 l 246 303 l 22 303 l 22 178 l 246 178 l 246 -200 l 385 -200 l 385 178 l 608 178 l 608 303 l 385 303 l 385 710 z "},"…":{"ha":1054,"x_min":0,"x_max":0,"o":"m 294 97 b 197 194 294 150 250 194 b 100 97 143 194 100 150 b 197 0 100 43 143 0 b 294 97 250 0 294 43 z m 624 97 b 526 194 624 150 581 194 b 431 97 474 194 431 150 b 526 0 431 43 474 0 b 624 97 581 0 624 43 z m 954 97 b 857 194 954 150 910 194 b 760 97 803 194 760 150 b 857 0 760 43 803 0 b 954 97 910 0 954 43 z "},"¨":{"ha":656,"x_min":0,"x_max":0,"o":"m 289 838 b 192 935 289 890 244 935 b 94 838 138 935 94 890 b 192 740 94 783 138 740 b 289 838 244 740 289 783 z m 563 838 b 465 935 563 890 519 935 b 369 838 413 935 369 890 b 465 740 369 783 413 740 b 563 838 519 740 563 783 z "},"‰":{"ha":1363,"x_min":0,"x_max":0,"o":"m 279 0 l 842 1031 l 708 1031 l 146 0 z m 253 544 b 331 567 282 544 308 553 b 382 625 351 581 369 600 b 414 788 403 665 414 721 b 382 950 414 856 404 910 b 332 1008 369 975 351 994 b 253 1031 308 1024 282 1031 b 175 1008 224 1031 197 1024 b 124 950 154 994 136 975 b 92 788 103 910 92 856 b 124 625 92 721 103 665 b 175 567 138 600 154 581 b 253 544 197 553 224 544 z m 253 954 b 315 915 282 954 300 943 b 338 788 331 886 338 842 b 315 661 338 733 331 690 b 253 621 300 633 281 621 b 192 661 225 621 206 633 b 168 788 176 690 168 733 b 192 915 168 842 176 886 b 253 954 206 943 225 954 z m 736 486 b 657 464 707 486 681 479 b 607 406 638 450 619 431 b 575 243 585 365 575 311 b 607 81 575 175 585 121 b 657 22 619 56 636 36 b 736 0 681 7 707 0 b 814 22 765 0 792 7 b 865 81 835 36 853 56 b 897 243 886 121 897 175 b 865 406 897 310 886 365 b 814 464 851 431 835 450 b 736 486 792 479 765 486 z m 736 76 b 674 115 707 76 689 89 b 651 243 658 144 651 189 b 674 371 651 297 658 342 b 736 410 689 397 707 410 b 797 371 764 410 783 397 b 821 243 813 342 821 297 b 797 115 821 189 813 144 b 736 76 783 89 764 76 z m 1151 486 b 1072 464 1122 486 1096 479 b 1022 406 1053 450 1035 431 b 990 243 1000 365 990 311 b 1022 81 990 175 1000 121 b 1072 22 1035 56 1051 36 b 1151 0 1096 7 1122 0 b 1229 22 1181 0 1207 7 b 1281 81 1250 36 1268 56 b 1313 243 1301 121 1313 175 b 1281 406 1313 310 1301 365 b 1229 464 1267 431 1250 450 b 1151 486 1207 479 1181 486 z m 1151 76 b 1089 115 1122 76 1104 89 b 1067 243 1074 144 1067 189 b 1089 371 1067 297 1074 342 b 1151 410 1104 397 1122 410 b 1213 371 1179 410 1199 397 b 1236 243 1228 342 1236 297 b 1213 115 1236 189 1228 144 b 1151 76 1199 89 1179 76 z "},"•":{"ha":426,"x_min":0,"x_max":0,"o":"m 353 515 b 214 654 353 592 290 654 b 75 515 138 654 75 592 b 214 376 75 439 138 376 b 353 515 290 376 353 439 z "},"±":{"ha":754,"x_min":0,"x_max":0,"o":"m 699 619 l 447 619 l 447 871 l 308 871 l 308 619 l 57 619 l 57 481 l 308 481 l 308 229 l 447 229 l 447 481 l 699 481 z m 699 0 l 699 139 l 57 139 l 57 0 z "},"©":{"ha":1190,"x_min":0,"x_max":0,"o":"m 596 -6 b 799 36 667 -6 735 8 b 964 147 861 63 917 100 b 1075 313 1013 196 1050 251 b 1117 515 1103 378 1117 446 b 1075 718 1117 586 1103 654 b 964 883 1050 781 1013 836 b 799 996 917 932 861 969 b 596 1036 735 1022 667 1036 b 393 996 525 1036 457 1022 b 228 883 331 969 275 932 b 115 718 179 836 142 781 b 75 515 89 654 75 586 b 115 313 75 446 89 378 b 228 147 142 251 179 196 b 393 36 275 100 331 63 b 596 -6 457 8 525 -6 z m 596 925 b 886 806 706 925 808 883 b 1006 515 963 728 1006 625 b 886 226 1006 406 963 303 b 596 106 808 149 706 106 b 306 226 486 106 383 149 b 186 515 229 303 186 406 b 306 806 186 625 229 728 b 596 925 383 883 486 925 z m 768 394 b 749 372 763 386 757 379 b 606 313 711 333 660 313 b 461 372 551 313 500 333 b 403 515 424 410 403 461 b 461 660 403 569 424 621 b 606 719 500 697 551 719 b 733 674 653 719 697 703 l 733 782 b 721 789 729 785 725 786 b 606 811 685 804 646 811 b 490 789 565 811 526 804 b 396 725 456 774 424 753 b 333 631 369 697 347 667 b 310 515 317 594 310 556 b 333 400 310 475 317 438 b 396 307 347 365 369 333 b 490 243 424 279 456 258 b 606 219 526 228 565 219 b 721 243 646 219 685 228 b 768 268 738 250 754 258 l 768 394 z "},"®":{"ha":1190,"x_min":0,"x_max":0,"o":"m 596 -6 b 799 36 667 -6 735 8 b 964 147 861 63 917 100 b 1075 313 1013 196 1050 251 b 1117 515 1103 378 1117 446 b 1075 718 1117 586 1103 654 b 964 883 1050 781 1013 836 b 799 996 917 932 861 969 b 596 1036 735 1022 667 1036 b 393 996 525 1036 457 1022 b 228 883 331 969 275 932 b 115 718 179 836 142 781 b 75 515 89 654 75 586 b 115 313 75 446 89 378 b 228 147 142 251 179 196 b 393 36 275 100 331 63 b 596 -6 457 8 525 -6 z m 596 925 b 886 806 706 925 808 883 b 1006 515 963 728 1006 625 b 886 226 1006 406 963 303 b 596 106 808 149 706 106 b 306 226 486 106 383 149 b 186 515 229 303 186 406 b 306 806 186 625 229 728 b 596 925 383 883 486 925 z m 658 433 b 726 478 690 444 713 463 b 775 615 758 513 775 561 b 726 753 775 671 758 718 b 578 811 703 779 657 811 l 482 811 l 482 811 l 403 811 l 403 219 l 496 219 l 496 419 l 564 419 l 713 219 l 817 219 l 658 433 z m 496 503 l 496 728 l 578 728 b 664 696 617 728 646 717 b 690 615 686 672 690 639 b 664 535 690 592 686 558 b 578 503 646 514 617 503 l 496 503 z "},"¦":{"ha":346,"x_min":0,"x_max":0,"o":"m 242 271 l 108 271 l 108 -233 l 242 -233 l 242 271 z m 242 1108 l 108 1108 l 108 603 l 242 603 l 242 1108 z "},"ª":{"ha":449,"x_min":0,"x_max":0,"o":"m 335 969 b 290 1013 324 988 308 1001 b 210 1031 267 1025 239 1032 b 131 1008 181 1031 153 1022 b 89 969 114 999 100 986 l 150 929 b 168 946 154 936 160 942 b 254 949 193 961 231 963 b 278 904 271 939 278 925 l 278 881 l 193 881 b 103 844 146 881 118 860 b 74 761 83 822 74 794 b 103 678 74 728 83 699 b 193 642 118 661 146 642 l 283 642 l 283 642 l 351 642 l 351 904 b 335 969 351 929 346 951 z m 151 722 b 139 761 142 733 139 749 b 151 800 139 772 142 789 b 193 814 160 810 174 814 l 278 814 l 278 707 l 193 707 b 151 722 174 707 160 713 z "},"µ":{"ha":711,"x_min":0,"x_max":0,"o":"m 657 740 l 540 740 l 540 251 b 494 150 540 207 525 174 b 382 115 467 128 426 115 b 269 150 339 115 299 128 b 224 251 240 174 224 207 l 224 740 l 108 740 l 108 -211 l 224 -211 l 224 42 b 382 0 269 14 324 0 b 540 42 440 0 496 14 l 540 0 l 657 0 l 657 740 z "},"ƒ":{"ha":731,"x_min":0,"x_max":0,"o":"m 469 653 l 492 813 b 540 917 496 842 508 893 b 667 922 574 939 628 932 l 713 1039 b 469 1025 613 1079 536 1072 b 353 813 407 981 367 907 l 331 653 l 213 653 l 194 526 l 313 526 l 246 46 b 197 -58 242 17 229 -36 b 71 -64 164 -82 110 -74 l 18 -199 b 118 -212 53 -208 88 -212 b 268 -168 175 -212 225 -197 b 385 46 331 -124 371 -50 l 451 526 l 631 526 l 649 653 l 469 653 z "},"ÿ":{"ha":956,"x_min":0,"x_max":0,"o":"m 921 1031 l 749 1031 l 479 664 l 210 1031 l 36 1031 l 399 539 l 399 0 l 560 0 l 560 539 z m 447 1233 b 376 1304 447 1272 415 1304 b 306 1233 338 1304 306 1272 b 376 1163 306 1194 338 1163 b 447 1233 415 1163 447 1194 z m 651 1233 b 581 1304 651 1272 619 1304 b 510 1233 542 1304 510 1272 b 581 1163 510 1194 542 1163 b 651 1233 619 1163 651 1194 z "},"°":{"ha":496,"x_min":0,"x_max":0,"o":"m 369 1057 b 247 1108 338 1090 294 1108 b 125 1057 201 1108 158 1090 b 75 935 93 1025 75 981 b 125 813 75 889 93 846 b 247 763 158 781 201 763 b 369 813 294 763 338 781 b 421 935 403 846 421 889 b 369 1057 421 981 403 1025 z m 247 847 b 160 935 200 847 160 886 b 247 1022 160 983 200 1022 b 335 935 296 1022 335 983 b 247 847 335 886 296 847 z "},"§":{"ha":806,"x_min":0,"x_max":0,"o":"m 733 139 b 657 267 722 188 696 232 b 697 332 674 288 686 308 b 717 501 722 386 729 444 b 615 650 703 560 668 611 b 411 725 563 690 493 715 b 268 811 332 735 281 765 b 301 901 260 843 272 879 b 372 924 319 915 344 924 l 374 924 b 501 882 411 924 456 910 l 583 1022 b 374 1086 511 1064 442 1086 l 372 1086 b 203 1031 308 1086 250 1067 b 117 913 163 1000 133 960 b 111 768 100 867 99 815 b 203 635 125 715 157 669 b 149 547 179 610 160 579 b 139 399 129 499 126 447 b 231 267 153 346 185 300 b 408 200 276 232 338 210 b 575 101 503 189 564 153 b 513 -26 586 57 561 6 b 378 -57 475 -51 429 -62 b 168 31 311 -51 240 -22 l 72 -100 b 364 -219 169 -171 268 -211 b 400 -221 376 -221 388 -221 b 603 -161 474 -221 543 -200 b 715 -31 653 -128 692 -83 b 733 139 740 25 747 83 z m 296 440 b 335 535 288 472 304 513 b 517 521 381 569 447 564 b 558 464 539 506 553 486 b 550 399 563 443 560 421 b 508 346 540 379 526 361 b 429 361 483 353 457 358 b 296 440 356 371 307 399 z "},"n":{"ha":1025,"x_min":0,"x_max":0,"o":"m 918 -47 l 918 1031 l 756 1031 l 756 369 l 108 1079 l 108 0 l 269 0 l 269 663 l 918 -47 z "},"‹":{"ha":504,"x_min":0,"x_max":0,"o":"m 428 44 l 183 372 l 426 696 l 267 696 l 24 372 l 268 44 l 428 44 z "},"›":{"ha":504,"x_min":0,"x_max":0,"o":"m 76 44 l 236 44 l 481 372 l 236 696 l 76 696 l 321 372 l 76 44 z "},"«":{"ha":836,"x_min":0,"x_max":0,"o":"m 456 44 l 211 372 l 454 696 l 294 696 l 51 372 l 296 44 z m 747 44 l 503 372 l 746 696 l 586 696 l 343 372 l 588 44 z "},"»":{"ha":836,"x_min":0,"x_max":0,"o":"m 381 44 l 540 44 l 785 372 l 540 696 l 381 696 l 625 372 l 381 44 z m 89 44 l 249 44 l 493 372 l 249 696 l 89 696 l 333 372 l 89 44 z "},"¶":{"ha":829,"x_min":0,"x_max":0,"o":"m 760 1031 l 318 1031 l 318 1031 l 276 1031 b 106 963 186 1031 133 993 b 50 804 69 922 50 868 b 106 646 50 740 69 686 b 276 578 133 615 186 578 l 290 578 l 290 -139 l 429 -139 l 429 892 l 524 892 l 524 -139 l 663 -139 l 663 892 l 760 1031 z "},"¤":{"ha":854,"x_min":0,"x_max":0,"o":"m 703 399 b 726 515 718 436 726 475 b 703 632 726 556 718 596 b 674 685 696 650 686 668 l 763 774 l 685 851 l 597 763 b 543 792 581 774 563 783 b 428 815 507 807 468 815 b 311 792 388 815 347 807 b 258 763 292 783 275 774 l 169 851 l 92 774 l 181 685 b 151 632 169 668 160 650 b 128 515 136 596 128 556 b 151 399 128 475 136 436 b 181 346 160 381 169 363 l 92 257 l 169 181 l 258 268 b 311 240 275 257 292 247 b 428 217 347 224 388 217 b 544 240 468 217 507 224 b 597 268 563 247 581 257 l 685 181 l 763 257 l 674 346 b 703 399 685 363 694 381 z m 428 322 b 326 350 392 322 357 332 b 292 378 314 357 303 367 l 290 379 b 261 415 279 389 269 401 b 233 515 243 446 233 481 b 261 617 233 551 243 586 b 290 653 269 629 279 642 b 326 682 301 664 314 674 b 428 710 357 700 392 710 b 528 682 463 710 497 700 b 564 653 540 674 553 664 l 565 651 b 593 617 576 640 585 629 b 621 515 611 586 621 551 b 593 415 621 481 611 446 b 564 379 585 401 575 390 b 528 350 553 368 540 358 b 428 322 497 332 463 322 z "},"·":{"ha":346,"x_min":0,"x_max":0,"o":"m 271 515 b 174 613 271 569 226 613 b 76 515 119 613 76 569 b 174 418 76 463 119 418 b 271 515 226 418 271 463 z "},"º":{"ha":533,"x_min":0,"x_max":0,"o":"m 401 964 b 267 1021 365 1001 318 1021 b 131 964 215 1021 167 1001 b 75 829 94 928 75 881 b 131 693 75 778 94 729 b 267 638 167 657 215 638 b 401 693 318 638 365 657 b 458 829 439 729 458 778 b 401 964 458 881 439 928 z m 267 717 b 154 829 204 717 154 767 b 267 942 154 892 204 942 b 379 829 329 942 379 892 b 267 717 379 767 329 717 z "},"¬":{"ha":804,"x_min":0,"x_max":0,"o":"m 697 326 l 697 704 l 14 704 l 14 565 l 558 565 l 558 326 l 697 326 z "},"˙":{"ha":344,"x_min":0,"x_max":0,"o":"m 269 838 b 172 935 269 890 225 935 b 75 838 118 935 75 890 b 172 740 75 783 118 740 b 269 838 225 740 269 783 z "},"˘":{"ha":532,"x_min":0,"x_max":0,"o":"m 65 956 b 76 918 68 942 72 929 b 96 882 82 906 88 893 b 121 851 103 871 111 861 b 151 826 131 842 142 833 b 188 807 163 818 175 813 b 225 796 199 801 213 799 b 265 792 238 793 251 792 b 306 796 279 792 292 793 b 343 807 318 799 331 801 b 378 826 356 813 367 818 b 410 851 389 833 400 842 b 435 882 419 861 428 871 b 453 918 442 893 449 906 b 465 956 458 929 463 942 l 376 949 b 350 911 369 935 361 921 b 313 885 339 900 326 890 b 265 875 297 879 282 875 b 218 885 249 875 233 879 b 181 911 204 890 192 900 b 154 949 169 921 161 935 l 65 956 z "},"Y":{"ha":956,"x_min":0,"x_max":0,"o":"m 921 1031 l 735 1031 l 479 678 l 224 1031 l 36 1031 l 399 539 l 399 0 l 560 0 l 560 539 l 921 1031 z "},"˛":{"ha":388,"x_min":0,"x_max":0,"o":"m 250 -185 l 233 -197 b 203 -208 224 -204 214 -208 b 188 -204 197 -208 193 -207 b 168 -176 175 -199 168 -189 b 186 -122 167 -161 172 -142 b 278 -37 204 -94 236 -65 l 335 0 l 169 0 l 164 -6 b 106 -69 140 -26 121 -47 b 72 -183 81 -108 69 -147 b 150 -292 76 -232 106 -272 b 203 -303 167 -299 185 -303 b 221 -301 210 -303 215 -303 b 292 -272 246 -299 271 -289 l 308 -260 l 250 -185 z "},"ı":{"ha":375,"x_min":0,"x_max":0,"o":"m 269 0 l 269 740 l 108 740 l 108 0 l 269 0 z "},"˝":{"ha":583,"x_min":0,"x_max":0,"o":"m 83 860 l 185 860 l 304 1031 l 151 1031 z m 299 860 l 401 860 l 521 1031 l 367 1031 z "},"ł":{"ha":806,"x_min":0,"x_max":0,"o":"m 783 146 l 353 146 l 353 489 l 561 603 l 561 742 l 353 628 l 353 1031 l 192 1031 l 192 539 l 57 464 l 57 325 l 192 400 l 192 0 l 351 0 l 351 0 l 783 0 l 783 146 z "},"ž":{"ha":979,"x_min":0,"x_max":0,"o":"m 619 1299 l 564 1344 l 482 1247 l 393 1346 l 339 1297 l 483 1136 l 619 1299 z m 874 0 l 71 0 l 600 869 l 186 869 l 186 1031 l 888 1031 l 358 161 l 874 161 l 874 0 z "},"œ":{"ha":1668,"x_min":0,"x_max":0,"o":"m 1571 886 l 1571 1031 l 1113 1031 l 1113 1031 l 953 1031 l 953 890 b 800 990 908 932 857 967 b 599 1031 736 1017 668 1031 b 399 990 529 1031 461 1017 b 235 881 336 964 282 928 b 124 717 188 832 150 778 b 83 515 97 653 83 585 b 124 315 83 446 97 378 b 235 151 150 253 188 199 b 399 40 282 104 336 67 b 599 0 461 14 529 0 b 800 40 668 0 736 14 b 953 140 857 64 908 99 l 953 0 l 1113 0 l 1113 0 l 1571 0 l 1571 146 l 1114 146 l 1114 465 l 1490 465 l 1490 611 l 1114 611 l 1114 886 l 1571 886 z m 849 265 b 599 161 782 199 693 161 b 349 265 504 161 415 199 b 244 515 282 332 244 421 b 349 765 244 610 282 699 b 599 869 415 832 504 869 b 849 765 693 869 782 832 b 953 515 915 699 953 610 b 849 265 953 421 915 332 z "},"š":{"ha":733,"x_min":0,"x_max":0,"o":"m 506 1299 l 450 1344 l 368 1247 l 279 1346 l 225 1297 l 369 1136 l 506 1299 z m 651 351 b 561 486 636 400 606 446 b 483 561 539 507 508 536 l 483 561 l 311 726 b 272 819 268 768 267 800 b 347 879 281 849 311 872 b 483 821 376 885 431 885 l 610 922 b 469 1026 569 971 522 1006 b 317 1038 419 1044 367 1049 b 193 979 271 1029 228 1008 b 117 864 156 947 129 908 b 119 733 104 822 106 776 b 199 610 133 689 160 647 l 325 490 b 451 368 331 485 406 411 b 499 251 481 340 513 299 b 390 165 486 210 443 175 b 296 174 360 158 326 161 b 194 254 258 188 224 215 l 67 154 b 238 22 115 92 172 49 b 360 0 276 7 318 0 b 422 6 381 0 401 1 b 654 207 535 28 625 107 b 651 351 668 254 667 304 z "},"à":{"ha":965,"x_min":0,"x_max":0,"o":"m 604 1156 l 507 1318 l 363 1318 l 507 1156 l 604 1156 z m 754 0 l 931 0 l 483 1078 l 35 0 l 213 0 l 300 221 l 667 221 l 754 0 z m 358 365 l 483 679 l 608 365 l 358 365 z "},"á":{"ha":965,"x_min":0,"x_max":0,"o":"m 407 1156 l 504 1156 l 649 1318 l 504 1318 z m 754 0 l 931 0 l 483 1078 l 35 0 l 213 0 l 300 221 l 667 221 l 754 0 z m 358 365 l 483 679 l 608 365 l 358 365 z "},"â":{"ha":965,"x_min":0,"x_max":0,"o":"m 622 1156 l 488 1318 l 342 1157 l 396 1108 l 485 1207 l 567 1108 z m 754 0 l 931 0 l 483 1078 l 35 0 l 213 0 l 300 221 l 667 221 l 754 0 z m 358 365 l 483 679 l 608 365 l 358 365 z "},"ã":{"ha":965,"x_min":0,"x_max":0,"o":"m 668 1283 l 593 1283 l 593 1265 b 581 1242 593 1254 589 1247 b 551 1235 574 1238 564 1235 b 504 1247 536 1235 521 1239 b 421 1268 478 1260 450 1267 b 419 1268 421 1268 419 1268 b 343 1247 390 1268 364 1261 b 310 1214 329 1239 318 1228 b 296 1164 301 1199 296 1182 l 296 1147 l 372 1147 l 372 1164 b 383 1183 372 1171 374 1178 b 419 1192 392 1189 406 1192 b 471 1179 431 1192 450 1190 b 553 1160 497 1167 525 1160 b 621 1178 578 1160 601 1165 b 656 1214 636 1188 647 1199 b 668 1265 664 1229 668 1247 z m 754 0 l 931 0 l 483 1078 l 35 0 l 213 0 l 300 221 l 667 221 l 754 0 z m 358 365 l 483 679 l 608 365 l 358 365 z "},"ä":{"ha":965,"x_min":0,"x_max":0,"o":"m 451 1247 b 381 1318 451 1286 419 1318 b 310 1247 342 1318 310 1286 b 381 1176 310 1208 342 1176 b 451 1247 419 1176 451 1208 z m 656 1247 b 585 1318 656 1286 624 1318 b 514 1247 546 1318 514 1286 b 585 1176 514 1208 546 1176 b 656 1247 624 1176 656 1208 z m 754 0 l 931 0 l 483 1078 l 35 0 l 213 0 l 300 221 l 667 221 l 754 0 z m 358 365 l 483 679 l 608 365 l 358 365 z "},"å":{"ha":965,"x_min":0,"x_max":0,"o":"m 482 1142 b 589 1249 542 1142 589 1189 b 482 1354 589 1307 542 1354 b 376 1249 424 1354 376 1307 b 482 1142 376 1189 424 1142 z m 482 1290 b 525 1249 506 1290 525 1271 b 482 1206 525 1225 506 1206 b 440 1249 460 1206 440 1225 b 482 1290 440 1271 460 1290 z m 754 0 l 931 0 l 483 1078 l 35 0 l 213 0 l 300 221 l 667 221 l 754 0 z m 358 365 l 483 679 l 608 365 l 358 365 z "},"æ":{"ha":1318,"x_min":0,"x_max":0,"o":"m 869 146 l 736 465 l 1017 465 l 1017 611 l 676 611 l 563 886 l 918 886 l 918 1031 l 503 1031 l 483 1078 l 35 0 l 213 0 l 300 221 l 667 221 l 754 0 l 753 0 l 753 0 l 1283 0 l 1283 146 l 869 146 z m 358 365 l 483 679 l 608 365 l 358 365 z "},"ç":{"ha":940,"x_min":0,"x_max":0,"o":"m 831 265 b 581 161 764 199 675 161 b 331 265 486 161 397 199 b 226 515 264 332 226 421 b 331 765 226 610 264 699 b 581 869 397 833 486 869 b 804 790 664 869 742 842 l 804 981 b 782 990 797 983 789 988 b 581 1031 718 1018 650 1031 b 381 990 511 1031 443 1018 b 217 881 318 965 264 928 b 106 717 169 833 132 778 b 65 515 79 653 65 585 b 106 315 65 446 79 378 b 217 151 132 253 169 199 b 381 40 264 104 318 67 b 496 7 417 25 456 14 l 414 -107 l 486 -119 b 542 -143 510 -124 529 -132 b 560 -169 551 -151 558 -160 b 544 -204 563 -183 557 -196 b 514 -211 538 -208 526 -211 b 494 -210 508 -211 501 -211 b 393 -160 465 -204 429 -186 l 382 -151 l 326 -224 l 338 -232 b 479 -300 386 -269 435 -292 b 514 -303 490 -301 503 -303 l 514 -303 b 593 -282 544 -303 571 -296 b 650 -153 638 -254 660 -203 b 601 -74 643 -122 628 -94 b 567 -50 592 -64 579 -57 l 603 0 b 782 40 665 3 725 17 b 865 85 811 53 839 68 l 865 304 b 831 265 854 290 843 278 z "},"è":{"ha":808,"x_min":0,"x_max":0,"o":"m 269 886 l 269 611 l 646 611 l 646 465 l 269 465 l 269 146 l 726 146 l 726 0 l 268 0 l 268 0 l 108 0 l 108 1031 l 268 1031 l 268 1031 l 726 1031 l 726 886 l 269 886 z m 554 1142 l 457 1304 l 311 1304 l 457 1142 l 554 1142 z "},"é":{"ha":808,"x_min":0,"x_max":0,"o":"m 269 886 l 726 886 l 726 1031 l 268 1031 l 268 1031 l 108 1031 l 108 0 l 268 0 l 268 0 l 726 0 l 726 146 l 269 146 l 269 465 l 646 465 l 646 611 l 269 611 z m 311 1142 l 408 1142 l 554 1304 l 408 1304 z "},"ê":{"ha":808,"x_min":0,"x_max":0,"o":"m 269 886 l 726 886 l 726 1031 l 268 1031 l 268 1031 l 108 1031 l 108 0 l 268 0 l 268 0 l 726 0 l 726 146 l 269 146 l 269 465 l 646 465 l 646 611 l 269 611 z m 558 1183 l 422 1346 l 278 1185 l 332 1136 l 419 1235 l 503 1136 z "},"ë":{"ha":808,"x_min":0,"x_max":0,"o":"m 269 886 l 726 886 l 726 1031 l 268 1031 l 268 1031 l 108 1031 l 108 0 l 268 0 l 268 0 l 726 0 l 726 146 l 269 146 l 269 465 l 646 465 l 646 611 l 269 611 z m 386 1233 b 315 1304 386 1272 354 1304 b 244 1233 276 1304 244 1272 b 315 1163 244 1194 276 1163 b 386 1233 354 1163 386 1194 z m 590 1233 b 519 1304 590 1272 558 1304 b 449 1233 481 1304 449 1272 b 519 1163 449 1194 481 1163 b 590 1233 558 1163 590 1194 z "},"ì":{"ha":396,"x_min":0,"x_max":0,"o":"m 279 0 l 118 0 l 118 1031 l 279 1031 l 279 0 z m 264 1142 l 168 1304 l 22 1304 l 168 1142 l 264 1142 z "},"í":{"ha":396,"x_min":0,"x_max":0,"o":"m 117 0 l 278 0 l 278 1031 l 117 1031 l 117 0 z m 132 1142 l 229 1142 l 374 1304 l 229 1304 z "},"î":{"ha":378,"x_min":0,"x_max":0,"o":"m 110 0 l 271 0 l 271 1031 l 110 1031 l 110 0 z m 331 1183 l 194 1346 l 50 1185 l 104 1136 l 193 1235 l 275 1136 z "},"ï":{"ha":378,"x_min":0,"x_max":0,"o":"m 110 0 l 271 0 l 271 1031 l 110 1031 l 110 0 z m 160 1233 b 89 1304 160 1272 128 1304 b 17 1233 49 1304 17 1272 b 89 1163 17 1194 49 1163 b 160 1233 128 1163 160 1194 z m 364 1233 b 293 1304 364 1272 332 1304 b 221 1233 253 1304 221 1272 b 293 1163 221 1194 253 1163 b 364 1233 332 1163 364 1194 z "},"ð":{"ha":1031,"x_min":0,"x_max":0,"o":"m 836 876 b 671 990 792 926 736 965 b 446 1031 604 1018 529 1031 l 363 1031 l 363 1031 l 201 1031 l 201 585 l 108 585 l 108 446 l 201 446 l 201 0 l 256 0 l 446 0 b 671 40 529 0 604 14 b 836 154 736 65 792 104 b 961 515 918 244 961 369 b 836 876 961 661 918 786 z m 717 263 b 446 161 656 196 565 161 l 363 161 l 363 446 l 535 446 l 535 585 l 363 585 l 363 869 l 446 869 b 717 768 565 869 656 836 b 800 515 771 708 800 621 b 717 263 800 410 771 322 z "},"ñ":{"ha":1025,"x_min":0,"x_max":0,"o":"m 699 1269 l 624 1269 l 624 1251 b 611 1228 624 1240 619 1233 b 582 1221 604 1224 594 1221 b 535 1233 567 1221 550 1225 b 451 1254 508 1246 479 1253 b 450 1254 451 1254 450 1254 b 374 1233 421 1254 394 1247 b 340 1200 360 1225 349 1214 b 326 1150 332 1185 326 1168 l 326 1133 l 403 1133 l 403 1150 b 414 1169 403 1157 404 1164 b 450 1178 422 1175 436 1178 b 501 1165 461 1178 481 1176 b 583 1146 528 1153 556 1146 b 651 1164 608 1146 632 1151 b 686 1200 667 1174 678 1185 b 699 1251 694 1215 699 1233 z m 918 -47 l 918 1031 l 756 1031 l 756 369 l 108 1079 l 108 0 l 269 0 l 269 663 z "},"ò":{"ha":1179,"x_min":0,"x_max":0,"o":"m 590 0 b 390 40 521 0 453 14 b 226 151 328 67 274 104 b 115 315 179 199 142 253 b 75 515 89 378 75 446 b 115 717 75 585 89 653 b 226 881 142 778 179 832 b 390 990 274 928 328 964 b 590 1031 453 1017 521 1031 b 792 990 660 1031 728 1017 b 956 881 853 964 907 928 b 1065 717 1003 832 1039 778 b 1106 515 1092 653 1106 585 b 1065 315 1106 446 1092 378 b 956 151 1039 253 1003 199 b 792 40 907 104 853 67 b 590 0 728 14 660 0 z m 590 869 b 340 765 496 869 407 832 b 236 515 274 699 236 610 b 340 265 236 421 274 332 b 590 161 407 199 496 161 b 840 265 685 161 774 199 b 944 515 907 332 944 421 b 840 765 944 610 907 699 b 590 869 774 832 685 869 z m 642 1142 l 546 1304 l 400 1304 l 546 1142 l 642 1142 z "},"ó":{"ha":1179,"x_min":0,"x_max":0,"o":"m 590 0 b 792 40 660 0 728 14 b 956 151 853 67 907 104 b 1065 315 1003 199 1039 253 b 1106 515 1092 378 1106 446 b 1065 717 1106 585 1092 653 b 956 881 1039 778 1003 832 b 792 990 907 928 853 964 b 590 1031 728 1017 660 1031 b 390 990 521 1031 453 1017 b 226 881 328 964 274 928 b 115 717 179 832 142 778 b 75 515 89 653 75 585 b 115 315 75 446 89 378 b 226 151 142 253 179 199 b 390 40 274 104 328 67 b 590 0 453 14 521 0 z m 590 869 b 840 765 685 869 774 832 b 944 515 907 699 944 610 b 840 265 944 421 907 332 b 590 161 774 199 685 161 b 340 265 496 161 407 199 b 236 515 274 332 236 421 b 340 765 236 610 274 699 b 590 869 407 832 496 869 z m 546 1142 l 643 1142 l 788 1304 l 643 1304 z "},"ô":{"ha":1179,"x_min":0,"x_max":0,"o":"m 590 0 b 792 40 660 0 728 14 b 956 151 853 67 907 104 b 1065 315 1003 199 1039 253 b 1106 515 1092 378 1106 446 b 1065 717 1106 585 1092 653 b 956 881 1039 778 1003 832 b 792 990 907 928 853 964 b 590 1031 728 1017 660 1031 b 390 990 521 1031 453 1017 b 226 881 328 964 274 928 b 115 717 179 832 142 778 b 75 515 89 653 75 585 b 115 315 75 446 89 378 b 226 151 142 253 179 199 b 390 40 274 104 328 67 b 590 0 453 14 521 0 z m 590 869 b 840 765 685 869 774 832 b 944 515 907 699 944 610 b 840 265 944 421 907 332 b 590 161 774 199 685 161 b 340 265 496 161 407 199 b 236 515 274 332 236 421 b 340 765 236 610 274 699 b 590 869 407 832 496 869 z m 731 1183 l 594 1346 l 450 1185 l 504 1136 l 593 1235 l 675 1136 z "},"õ":{"ha":1179,"x_min":0,"x_max":0,"o":"m 590 0 b 792 40 660 0 728 14 b 956 151 853 67 907 104 b 1065 315 1003 199 1039 253 b 1106 515 1092 378 1106 446 b 1065 717 1106 585 1092 653 b 956 881 1039 778 1003 832 b 792 990 907 928 853 964 b 590 1031 728 1017 660 1031 b 390 990 521 1031 453 1017 b 226 881 328 964 274 928 b 115 717 179 832 142 778 b 75 515 89 653 75 585 b 115 315 75 446 89 378 b 226 151 142 253 179 199 b 390 40 274 104 328 67 b 590 0 453 14 521 0 z m 590 869 b 840 765 685 869 774 832 b 944 515 907 699 944 610 b 840 265 944 421 907 332 b 590 161 774 199 685 161 b 340 265 496 161 407 199 b 236 515 274 332 236 421 b 340 765 236 610 274 699 b 590 869 407 832 496 869 z m 776 1269 l 701 1269 l 701 1251 b 689 1228 701 1240 697 1233 b 660 1221 682 1224 672 1221 b 613 1233 644 1221 628 1225 b 529 1254 586 1246 557 1253 b 528 1254 528 1254 528 1254 b 451 1233 499 1254 472 1247 b 418 1200 438 1225 425 1214 b 404 1150 408 1185 404 1168 l 404 1133 l 481 1133 l 481 1150 b 492 1169 481 1157 482 1164 b 528 1178 500 1175 513 1178 b 579 1165 539 1178 558 1176 b 660 1146 606 1153 633 1146 b 729 1164 686 1146 710 1151 b 764 1200 743 1174 756 1185 b 776 1251 772 1215 776 1233 z "},"ö":{"ha":1179,"x_min":0,"x_max":0,"o":"m 590 0 b 792 40 660 0 728 14 b 956 151 853 67 907 104 b 1065 315 1003 199 1039 253 b 1106 515 1092 378 1106 446 b 1065 717 1106 585 1092 653 b 956 881 1039 778 1003 832 b 792 990 907 928 853 964 b 590 1031 728 1017 660 1031 b 390 990 521 1031 453 1017 b 226 881 328 964 274 928 b 115 717 179 832 142 778 b 75 515 89 653 75 585 b 115 315 75 446 89 378 b 226 151 142 253 179 199 b 390 40 274 104 328 67 b 590 0 453 14 521 0 z m 590 869 b 840 765 685 869 774 832 b 944 515 907 699 944 610 b 840 265 944 421 907 332 b 590 161 774 199 685 161 b 340 265 496 161 407 199 b 236 515 274 332 236 421 b 340 765 236 610 274 699 b 590 869 407 832 496 869 z m 560 1233 b 489 1304 560 1272 528 1304 b 417 1233 449 1304 417 1272 b 489 1163 417 1194 449 1163 b 560 1233 528 1163 560 1194 z m 764 1233 b 693 1304 764 1272 732 1304 b 621 1233 653 1304 621 1272 b 693 1163 621 1194 653 1163 b 764 1233 732 1163 764 1194 z "},"ø":{"ha":1176,"x_min":0,"x_max":0,"o":"m 1064 717 b 954 881 1038 778 1001 832 b 946 888 951 882 949 885 l 1094 1090 l 933 1090 l 842 965 b 790 990 825 975 807 983 b 767 1000 782 993 775 997 b 589 1031 710 1021 650 1031 b 389 990 519 1031 451 1017 b 225 881 326 964 272 928 b 114 717 178 832 140 778 b 74 515 88 653 74 585 b 114 315 74 446 88 378 b 225 151 140 253 178 199 b 233 143 228 149 231 146 l 83 -60 l 244 -60 l 338 65 b 389 40 353 57 371 49 b 411 32 396 38 404 35 b 589 0 468 11 528 0 b 790 40 658 0 726 14 b 954 151 851 67 906 104 b 1064 315 1001 199 1038 253 b 1104 515 1090 378 1104 446 b 1064 717 1104 585 1090 653 z m 235 515 b 339 765 235 610 272 699 b 589 869 406 832 494 869 b 689 856 624 869 657 864 b 744 833 708 850 726 842 l 331 274 b 235 515 268 340 235 425 z m 839 265 b 589 161 772 199 683 161 b 489 176 554 161 521 167 b 433 197 469 182 451 189 l 849 757 b 943 515 910 690 943 606 b 839 265 943 421 906 332 z "},"ù":{"ha":960,"x_min":0,"x_max":0,"o":"m 481 0 b 225 82 383 0 293 29 b 133 193 185 113 154 150 b 99 350 110 240 99 293 l 99 1031 l 260 1031 l 260 350 b 324 210 260 289 282 242 b 481 161 363 179 419 161 b 638 210 540 161 597 179 b 700 350 679 242 700 289 l 700 1031 l 863 1031 l 863 350 b 828 193 863 293 850 240 b 736 82 806 150 775 113 b 481 0 668 29 578 0 z m 601 1142 l 504 1304 l 360 1304 l 504 1142 l 601 1142 z "},"ú":{"ha":960,"x_min":0,"x_max":0,"o":"m 481 0 b 736 82 578 0 668 29 b 828 193 775 113 806 150 b 863 350 850 240 863 293 l 863 1031 l 700 1031 l 700 350 b 638 210 700 289 679 242 b 481 161 597 179 540 161 b 324 210 419 161 363 179 b 260 350 282 242 260 289 l 260 1031 l 99 1031 l 99 350 b 133 193 99 293 110 240 b 225 82 154 150 185 113 b 481 0 293 29 383 0 z m 360 1142 l 456 1142 l 601 1304 l 456 1304 z "},"û":{"ha":960,"x_min":0,"x_max":0,"o":"m 481 0 b 736 82 578 0 668 29 b 828 193 775 113 806 150 b 863 350 850 240 863 293 l 863 1031 l 700 1031 l 700 350 b 638 210 700 289 679 242 b 481 161 597 179 540 161 b 324 210 419 161 363 179 b 260 350 282 242 260 289 l 260 1031 l 99 1031 l 99 350 b 133 193 99 293 110 240 b 225 82 154 150 185 113 b 481 0 293 29 383 0 z m 621 1183 l 485 1346 l 340 1185 l 394 1136 l 483 1235 l 565 1136 z "},"ü":{"ha":960,"x_min":0,"x_max":0,"o":"m 481 0 b 736 82 578 0 668 29 b 828 193 775 113 806 150 b 863 350 850 240 863 293 l 863 1031 l 700 1031 l 700 350 b 638 210 700 289 679 242 b 481 161 597 179 540 161 b 324 210 419 161 363 179 b 260 350 282 242 260 289 l 260 1031 l 99 1031 l 99 350 b 133 193 99 293 110 240 b 225 82 154 150 185 113 b 481 0 293 29 383 0 z m 449 1233 b 378 1304 449 1272 417 1304 b 307 1233 339 1304 307 1272 b 378 1163 307 1194 339 1163 b 449 1233 417 1163 449 1194 z m 653 1233 b 582 1304 653 1272 621 1304 b 511 1233 543 1304 511 1272 b 582 1163 511 1194 543 1163 b 653 1233 621 1163 653 1194 z "},"ý":{"ha":956,"x_min":0,"x_max":0,"o":"m 921 1031 l 749 1031 l 479 664 l 210 1031 l 36 1031 l 399 539 l 399 0 l 560 0 l 560 539 z m 388 1142 l 485 1142 l 629 1304 l 485 1304 z "},"þ":{"ha":789,"x_min":0,"x_max":0,"o":"m 678 800 b 421 903 636 846 557 903 l 269 903 l 269 1031 l 108 1031 l 108 0 l 269 0 l 269 219 l 421 219 b 678 322 557 219 636 275 b 761 561 732 382 761 465 b 678 800 761 657 732 739 z m 571 419 b 421 365 538 383 488 365 l 269 365 l 269 757 l 421 757 b 571 701 488 757 538 739 b 617 561 608 660 617 601 b 571 419 617 519 608 461 z "},"Ÿ":{"ha":956,"x_min":0,"x_max":0,"o":"m 921 1031 l 749 1031 l 479 664 l 210 1031 l 36 1031 l 399 539 l 399 0 l 560 0 l 560 539 z m 447 1233 b 376 1304 447 1272 415 1304 b 306 1233 338 1304 306 1272 b 376 1163 306 1194 338 1163 b 447 1233 415 1163 447 1194 z m 651 1233 b 581 1304 651 1272 619 1304 b 510 1233 542 1304 510 1272 b 581 1163 510 1194 542 1163 b 651 1233 619 1163 651 1194 z "},"t":{"ha":811,"x_min":0,"x_max":0,"o":"m 771 1031 l 42 1031 l 42 886 l 325 886 l 325 0 l 488 0 l 488 886 l 771 886 l 771 1031 z "},"u":{"ha":960,"x_min":0,"x_max":0,"o":"m 481 0 b 736 82 578 0 668 29 b 828 193 775 113 806 150 b 863 350 850 240 863 293 l 863 1031 l 700 1031 l 700 350 b 638 210 700 289 679 242 b 481 161 597 179 540 161 b 324 210 419 161 363 179 b 260 350 282 242 260 289 l 260 1031 l 99 1031 l 99 350 b 133 193 99 293 110 240 b 225 82 154 150 185 113 b 481 0 293 29 383 0 z "},"v":{"ha":983,"x_min":0,"x_max":0,"o":"m 213 1031 l 35 1031 l 507 -46 l 949 1031 l 774 1031 l 503 351 l 213 1031 z "},"w":{"ha":1557,"x_min":0,"x_max":0,"o":"m 1500 1031 l 1324 1031 l 1053 351 l 869 782 l 779 992 l 696 779 l 525 351 l 235 1031 l 57 1031 l 529 -46 l 785 575 l 1057 -46 l 1500 1031 z "},"x":{"ha":1113,"x_min":0,"x_max":0,"o":"m 1033 0 l 657 551 l 985 1031 l 782 1031 l 556 700 l 331 1031 l 128 1031 l 454 551 l 79 0 l 282 0 l 556 403 l 831 0 l 1033 0 z "},"y":{"ha":956,"x_min":0,"x_max":0,"o":"m 921 1031 l 749 1031 l 479 664 l 210 1031 l 36 1031 l 399 539 l 399 0 l 560 0 l 560 539 l 921 1031 z "},"z":{"ha":979,"x_min":0,"x_max":0,"o":"m 874 0 l 874 161 l 358 161 l 888 1031 l 186 1031 l 186 869 l 600 869 l 71 0 l 874 0 z "},"p":{"ha":779,"x_min":0,"x_max":0,"o":"m 108 1031 l 108 0 l 269 0 l 269 349 l 414 349 b 671 451 550 349 629 404 b 754 690 726 511 754 594 b 671 929 754 786 726 868 b 414 1031 629 975 550 1031 l 244 1031 l 108 1031 z m 564 549 b 414 494 531 513 481 494 l 269 494 l 269 886 l 414 886 b 564 831 481 886 531 867 b 610 690 601 789 610 731 b 564 549 610 649 601 590 z "},"q":{"ha":1175,"x_min":0,"x_max":0,"o":"m 1056 315 b 1096 515 1083 378 1096 446 b 1056 717 1096 585 1083 653 b 946 881 1029 778 993 833 b 782 990 899 928 843 964 b 581 1031 718 1018 650 1031 b 381 990 511 1031 443 1018 b 217 881 318 964 264 928 b 106 717 169 833 132 778 b 65 515 79 653 65 585 b 106 315 65 446 79 378 b 217 151 132 253 169 199 b 381 40 264 104 318 67 b 581 0 443 14 511 0 b 782 40 650 0 718 14 b 817 57 793 46 806 51 l 911 -69 l 1028 18 l 935 140 b 946 151 939 144 942 147 b 1056 315 993 199 1029 253 z m 581 161 b 331 265 486 161 397 199 b 226 515 264 332 226 421 b 331 765 226 610 264 699 b 581 869 397 832 486 869 b 831 765 675 869 764 832 b 935 515 897 699 935 610 b 838 271 935 424 900 338 l 763 372 l 646 285 l 718 189 b 581 161 675 171 629 161 z "},"r":{"ha":890,"x_min":0,"x_max":0,"o":"m 551 372 b 671 451 607 392 646 424 b 754 689 725 511 754 594 b 671 928 754 785 725 868 b 414 1031 629 975 550 1031 l 244 1031 l 244 1031 l 108 1031 l 108 0 l 269 0 l 269 349 l 388 349 l 647 0 l 829 0 l 551 372 z m 269 493 l 269 885 l 414 885 b 563 831 481 885 531 867 b 608 689 601 789 608 731 b 563 549 608 649 601 590 b 414 493 531 513 481 493 l 269 493 z "},"i":{"ha":375,"x_min":0,"x_max":0,"o":"m 269 0 l 269 1031 l 108 1031 l 108 0 l 269 0 z "},"j":{"ha":583,"x_min":0,"x_max":0,"o":"m 488 1031 l 325 1031 l 325 350 b 268 207 325 288 306 239 b 121 161 232 178 181 161 b 56 169 99 161 76 164 l 56 4 b 121 0 76 1 99 0 b 371 83 218 0 307 29 b 488 350 424 128 488 210 l 488 1031 z "},"k":{"ha":943,"x_min":0,"x_max":0,"o":"m 879 0 l 425 535 l 803 1031 l 600 1031 l 269 606 l 269 1031 l 108 1031 l 108 0 l 269 0 l 269 467 l 678 0 l 879 0 z "},"f":{"ha":740,"x_min":0,"x_max":0,"o":"m 269 886 l 728 886 l 728 1031 l 268 1031 l 268 1031 l 108 1031 l 108 0 l 269 0 l 269 465 l 646 465 l 646 611 l 269 611 l 269 886 z "},"g":{"ha":986,"x_min":0,"x_max":0,"o":"m 904 535 l 549 535 l 549 389 l 743 389 l 743 199 b 742 199 742 199 742 199 b 685 176 724 189 704 182 b 682 175 685 176 683 175 b 676 174 681 175 678 175 b 672 172 675 174 674 174 b 668 172 671 172 669 172 b 663 171 667 171 664 171 b 660 169 661 169 661 169 b 629 164 650 168 639 165 b 626 164 628 164 628 164 b 621 164 625 164 622 164 b 618 163 619 164 618 164 b 611 163 615 163 614 163 b 607 163 610 163 608 163 b 603 163 606 163 604 163 b 597 163 601 163 599 163 b 593 161 596 161 594 161 b 583 161 590 161 586 161 b 333 265 489 161 400 199 b 243 419 290 308 260 361 b 231 497 236 444 232 471 b 229 515 229 504 229 510 b 231 535 229 522 229 528 b 231 550 231 539 231 544 b 238 592 232 564 235 578 b 239 594 238 593 238 593 b 282 700 247 632 261 667 b 285 706 282 701 283 704 b 293 718 288 710 290 714 b 296 721 293 718 294 719 b 314 746 301 729 307 738 b 315 747 315 746 315 747 b 333 765 321 754 328 760 b 394 815 351 785 372 801 b 401 819 397 817 400 818 b 583 869 456 853 518 869 b 593 869 586 869 590 869 b 596 869 593 869 594 869 b 601 869 597 869 600 869 b 606 869 603 869 604 869 b 610 868 607 869 608 868 b 618 868 613 868 615 868 b 622 868 619 868 621 868 b 628 867 624 867 626 867 b 631 867 629 867 629 867 b 636 865 632 867 635 865 b 639 865 638 865 638 865 b 657 863 644 864 651 864 b 660 861 658 861 660 861 b 665 860 663 861 664 861 b 669 860 667 860 668 860 b 674 858 671 858 672 858 b 738 835 694 853 717 844 l 738 835 b 807 790 763 822 786 808 l 807 981 l 807 981 l 807 981 l 807 981 b 806 981 807 981 807 981 b 797 985 803 982 800 983 b 796 986 796 985 796 986 b 622 1029 740 1011 682 1025 b 622 1029 622 1029 622 1029 b 610 1031 618 1031 614 1031 b 608 1031 610 1031 610 1031 b 597 1031 606 1031 601 1031 b 596 1031 597 1031 596 1031 b 583 1031 592 1031 588 1031 b 583 1031 583 1031 583 1031 b 383 990 514 1031 446 1018 b 219 881 321 965 267 928 b 108 717 172 833 135 778 b 68 542 85 661 72 601 b 68 515 68 533 68 524 b 71 464 68 499 69 481 b 108 315 75 413 89 363 b 219 151 135 253 172 199 b 333 65 253 117 292 88 b 383 40 349 56 365 47 b 404 32 390 38 397 35 b 419 26 410 31 414 28 b 421 26 419 26 419 26 b 583 0 472 8 528 0 b 583 0 583 0 583 0 b 596 0 588 0 592 0 b 597 0 596 0 597 0 b 608 0 601 0 606 0 b 610 0 610 0 610 0 b 794 44 675 4 736 18 b 796 46 796 46 796 46 b 806 50 799 47 803 49 b 806 50 806 50 806 50 b 813 54 808 51 811 53 b 815 54 814 54 814 54 b 818 57 817 56 817 56 b 825 60 821 57 824 58 b 829 63 826 61 828 61 b 836 65 832 64 833 64 b 840 68 838 67 839 67 b 844 71 842 69 843 69 b 850 75 847 72 849 74 b 856 78 853 75 854 76 b 860 81 857 78 858 79 b 865 83 861 81 864 82 b 868 85 867 85 867 85 l 868 85 b 868 85 868 85 868 85 l 904 110 l 904 389 l 904 389 l 904 535 z "},"m":{"ha":1185,"x_min":0,"x_max":0,"o":"m 1078 0 l 1078 1078 l 593 356 l 108 1078 l 108 0 l 269 0 l 269 547 l 593 67 l 915 547 l 915 0 l 1078 0 z "},"A":{"ha":965,"x_min":0,"x_max":0,"o":"m 754 0 l 931 0 l 483 1078 l 35 0 l 213 0 l 300 221 l 667 221 l 754 0 z m 358 365 l 483 679 l 608 365 l 358 365 z "},"M":{"ha":1185,"x_min":0,"x_max":0,"o":"m 1078 0 l 1078 1078 l 593 356 l 108 1078 l 108 0 l 269 0 l 269 547 l 593 67 l 915 547 l 915 0 l 1078 0 z "},"E":{"ha":808,"x_min":0,"x_max":0,"o":"m 269 886 l 726 886 l 726 1031 l 268 1031 l 268 1031 l 108 1031 l 108 0 l 268 0 l 268 0 l 726 0 l 726 146 l 269 146 l 269 465 l 646 465 l 646 611 l 269 611 l 269 886 z "}}}
